<svg width="168" height="168" viewBox="0 0 168 168" fill="none">
    <path fill-rule="evenodd" clip-rule="evenodd"
        d="M163.6 114.861C163.6 118.709 163.1 121.993 162 124.339C161.8 124.84 161.567 125.278 161.3 125.653C159.7 128.187 156.3 130.627 151.9 132.879L95.5 163.94C91.8 165.911 88.4 167.131 85.4 167.506C84.8667 167.569 84.3333 167.6 83.8 167.6C83.2667 167.6 82.7333 167.569 82.2 167.506C79.3 167.131 75.8 165.911 72.1 163.94L41.9 148.456L15.8 132.879C11.3 130.627 8 128.187 6.4 125.653C4.8 123.213 4 119.46 4 114.861V52.7386C4 48.8912 4.6 45.6067 5.7 43.2607C5.9 42.7602 6.13333 42.291 6.4 41.8531C6.66667 41.4777 6.96667 41.1023 7.3 40.727C9.1 38.6625 12 36.598 15.8 34.6273L41.9 19.1436L72.1 3.6598C76.6 1.31377 80.6 0 83.8 0C84.3333 0 84.8667 0.0312803 85.4 0.093841C88.4 0.469205 91.8 1.68914 95.5 3.6598L125.7 19.1436L151.9 34.6273C155.6 36.598 158.6 38.6625 160.4 40.727C160.733 41.1023 161.033 41.4777 161.3 41.8531C161.567 42.291 161.8 42.7602 162 43.2607C163.1 45.6067 163.6 48.8912 163.6 52.7386V114.861ZM148.4 53.5832C148.4 50.8618 146.8 48.3281 144.2 47.0143L87.6 15.8591C86.9107 15.4935 86.1675 15.2375 85.4 15.091C83.6067 14.7488 81.6807 15.0048 80 15.8591L23.4 47.0143C20.9 48.3281 19.3 50.8618 19.3 53.5832V114.017C19.3 116.738 20.9 119.272 23.4 120.492L80 151.741C81.1886 152.345 82.4998 152.65 83.8 152.656C85.1252 152.662 86.439 152.357 87.6 151.741L144.2 120.586C146.8 119.272 148.4 116.738 148.4 114.017V53.5832Z"
        fill="#F3F3F3">
    </path>
    <path
        d="M148.4 53.5832C148.4 50.8618 146.8 48.3281 144.2 47.0143L87.6 15.8591C86.9107 15.4935 86.1675 15.2375 85.4 15.091C83.6067 14.7488 81.6807 15.0048 80 15.8591L23.4 47.0143C20.9 48.3281 19.3 50.8618 19.3 53.5832V114.017C19.3 116.738 20.9 119.272 23.4 120.492L80 151.741C81.1886 152.345 82.4998 152.65 83.8 152.656C85.1252 152.662 86.439 152.357 87.6 151.741L144.2 120.586C146.8 119.272 148.4 116.738 148.4 114.017V53.5832Z"
        fill="#0F0E0E">
    </path>
    <path
        d="M51 55.3534C51 52.0397 53.6863 49.3534 57 49.3534H64.216C70.3792 49.3534 74.9011 49.7875 77.7815 50.6559C81.0643 51.6725 83.5953 52.9751 85.3743 54.5635C87.1746 56.152 88.583 57.7934 89.5997 59.4878C91.6752 62.94 92.713 66.8582 92.713 71.2423C92.713 78.1469 90.235 83.7383 85.279 88.0165C81.7632 91.0875 77.6226 92.9831 72.8573 93.7032C70.2098 94.1057 66.5034 94.3069 61.738 94.3069H57C53.6863 94.3069 51 91.6206 51 88.3069V55.3534ZM67.2023 90.748C67.2023 91.2662 67.6054 91.7018 68.1236 91.7018H68.8543C74.594 91.7018 79.497 89.9121 83.5635 86.3328C87.8629 82.5628 90.0127 77.5538 90.0127 71.3059C90.0127 67.3665 89.0702 63.819 87.1852 60.6632C84.453 56.0673 80.1324 53.2822 74.2233 52.3079C73.9188 52.2577 73.604 52.211 73.2789 52.1676C69.9584 51.7252 67.2023 54.511 67.2023 57.8608V90.748Z"
        fill="#F3F3F3"></path>
    <path
        d="M117 50.6877L116.809 54.6271V73.625C116.809 79.8942 115.009 84.9879 111.409 88.9061C107.723 92.909 102.831 94.9105 96.7312 94.9105C90.2079 94.9105 85.1248 92.8666 81.482 88.779C78.0933 85.0302 76.3989 80.2225 76.3989 74.3557V55.3534C76.3989 52.0397 79.0852 49.3534 82.3989 49.3534H86.633C89.9467 49.3534 92.633 52.0397 92.633 55.3534V87.0063C92.633 89.9922 94.835 92.5481 97.8209 92.5592C97.8811 92.5594 97.9415 92.5595 98.002 92.5595C99.9717 92.5595 101.963 92.1677 103.975 91.3841C106.008 90.6004 107.787 89.372 109.312 87.6988C112.616 84.0983 114.289 78.8352 114.331 71.9095V54.6906C114.331 54.0552 114.278 53.3033 114.173 52.435C114.088 51.5666 114.045 50.9736 114.045 50.6559C114.045 49.5546 114.564 49.0039 115.602 49.0039C116.534 49.0039 117 49.5652 117 50.6877Z"
        fill="#F3F3F3"></path>
    <path
        d="M72.809 81.1225L75.6364 81.2496C79.7452 81.2496 83.134 79.8941 85.8026 77.1832C88.5136 74.451 89.9326 70.914 90.0597 66.5722C90.2926 59.8795 87.0734 55.3577 80.4018 53.0068C77.9026 52.1172 74.6516 51.6725 70.6486 51.6725C69.1748 51.6725 67.98 52.8672 67.98 54.3411V88.3068C67.98 91.6205 65.2937 94.3068 61.98 94.3068H57.7777C54.464 94.3068 51.7777 91.6205 51.7777 88.3068V55.3533C51.7777 52.0396 54.464 49.3533 57.7777 49.3533H63.9453C70.511 49.3533 74.4715 49.4486 75.827 49.6392C77.1825 49.8298 78.591 50.0734 80.0523 50.3699C81.5349 50.6664 83.1234 51.3124 84.8177 52.3078C86.5333 53.3033 87.9841 54.4893 89.1701 55.866C91.5634 58.6617 92.7177 61.9445 92.633 65.7145C92.5059 70.5222 91.0975 74.5251 88.4077 77.7232C85.6755 80.9425 81.9056 82.9334 77.0978 83.6958C75.7 83.8865 74.5986 83.9818 73.7938 83.9818C71.8876 83.9818 70.9346 83.4629 70.9346 82.4251C70.9346 82.0438 71.104 81.7367 71.4429 81.5038C71.7818 81.2496 72.2371 81.1225 72.809 81.1225Z"
        fill="#F3F3F3"></path>
    <path
        d="M34.2223 99.6196H36.6598C37.7965 99.6196 38.6305 99.6997 39.1617 99.8599C39.7672 100.047 40.234 100.288 40.5621 100.581C40.8941 100.874 41.1539 101.176 41.3414 101.489C41.7242 102.125 41.9156 102.848 41.9156 103.657C41.9156 104.93 41.4586 105.961 40.5445 106.75C39.8961 107.317 39.1324 107.667 38.2535 107.799C37.7652 107.874 37.0816 107.911 36.2027 107.911H34.2223V99.6196ZM37.2105 107.424C37.273 107.428 37.3297 107.43 37.3805 107.43H37.5152C38.5738 107.43 39.4781 107.1 40.2281 106.44C41.0211 105.745 41.4176 104.821 41.4176 103.668C41.4176 102.942 41.2438 102.288 40.8961 101.706C40.3922 100.858 39.5953 100.344 38.5055 100.165C38.15 100.106 37.7184 100.073 37.2105 100.065V107.424ZM51.495 99.8657L51.4598 100.592V104.096C51.4598 105.252 51.1278 106.192 50.4638 106.915C49.7841 107.653 48.8817 108.022 47.7567 108.022C46.5536 108.022 45.6161 107.645 44.9442 106.891C44.3192 106.2 44.0067 105.313 44.0067 104.231V99.6196H47.0009V107.524C47.3016 107.567 47.6317 107.588 47.9911 107.588C48.3544 107.588 48.7216 107.516 49.0927 107.372C49.4677 107.227 49.7958 107 50.077 106.692C50.6864 106.028 50.995 105.057 51.0028 103.78V100.604C51.0028 100.487 50.993 100.348 50.9735 100.188C50.9579 100.028 50.9501 99.9185 50.9501 99.8599C50.9501 99.6567 51.0458 99.5552 51.2372 99.5552C51.4091 99.5552 51.495 99.6587 51.495 99.8657ZM57.9865 105.479L58.508 105.502C59.2658 105.502 59.8908 105.252 60.383 104.752C60.883 104.249 61.1447 103.596 61.1681 102.795C61.2111 101.561 60.6173 100.727 59.3869 100.293C58.9259 100.129 58.3263 100.047 57.5881 100.047H57.0959V107.911H54.1076V99.6196H56.3517C57.5627 99.6196 58.2931 99.6372 58.5431 99.6724C58.7931 99.7075 59.0529 99.7524 59.3224 99.8071C59.5959 99.8618 59.8888 99.981 60.2013 100.165C60.5177 100.348 60.7853 100.567 61.0041 100.821C61.4455 101.336 61.6584 101.942 61.6427 102.637C61.6193 103.524 61.3595 104.262 60.8634 104.852C60.3595 105.446 59.6642 105.813 58.7775 105.954C58.5197 105.989 58.3166 106.006 58.1681 106.006C57.8166 106.006 57.6408 105.911 57.6408 105.719C57.6408 105.649 57.672 105.592 57.7345 105.549C57.797 105.502 57.881 105.479 57.9865 105.479ZM63.3413 107.272C63.2827 107.116 63.2534 106.952 63.2534 106.78C63.2534 106.608 63.2866 106.452 63.353 106.311C63.4233 106.167 63.5209 106.04 63.6459 105.93C63.9116 105.692 64.2436 105.573 64.642 105.573C65.0522 105.573 65.3842 105.708 65.6381 105.977C65.8725 106.223 65.9897 106.512 65.9897 106.844C65.9897 107.176 65.8569 107.454 65.5913 107.676C65.3178 107.907 64.9897 108.022 64.6069 108.022C63.9584 108.022 63.5366 107.772 63.3413 107.272ZM75.1823 106.522C75.3425 106.522 75.4226 106.612 75.4226 106.792C75.4226 106.94 75.3093 107.088 75.0827 107.237C74.6609 107.514 74.3054 107.696 74.0163 107.782C73.4734 107.942 72.903 108.022 72.3054 108.022C71.7077 108.022 71.1316 107.917 70.5769 107.706C70.0261 107.491 69.5554 107.192 69.1648 106.809C68.3484 106.004 67.9402 104.965 67.9402 103.692C67.9402 103.079 68.0554 102.516 68.2859 102.004C68.5163 101.489 68.8347 101.047 69.2409 100.68C70.1003 99.9028 71.1804 99.5142 72.4812 99.5142C73.2116 99.5142 73.8542 99.6392 74.4089 99.8892C74.9988 100.151 75.2937 100.374 75.2937 100.557C75.2937 100.631 75.2683 100.696 75.2175 100.75C75.1706 100.805 75.1159 100.833 75.0534 100.833C74.9284 100.833 74.8152 100.778 74.7136 100.668C74.612 100.555 74.4734 100.454 74.2976 100.364C74.1257 100.274 73.9363 100.196 73.7292 100.129C73.3073 100 72.9226 99.936 72.5749 99.936C72.2312 99.936 71.946 99.9595 71.7195 100.006V107.518C71.9929 107.565 72.2351 107.588 72.446 107.588C72.657 107.588 72.8718 107.575 73.0905 107.547C73.3093 107.52 73.5241 107.475 73.7351 107.413C74.2077 107.272 74.5632 107.065 74.8015 106.792C74.8874 106.69 74.9558 106.62 75.0066 106.581C75.0573 106.542 75.1159 106.522 75.1823 106.522ZM78.4629 106.856C78.0762 106.477 77.7676 106.02 77.5371 105.485C77.3105 104.946 77.1973 104.36 77.1973 103.727C77.1973 103.09 77.3047 102.52 77.5195 102.016C77.7383 101.508 78.0391 101.069 78.4219 100.698C79.2422 99.9087 80.2715 99.5142 81.5098 99.5142C82.7402 99.5142 83.748 99.9028 84.5332 100.68C85.3301 101.469 85.7285 102.493 85.7285 103.75C85.7285 105.004 85.3203 106.036 84.5039 106.844C83.9922 107.344 83.3633 107.69 82.6172 107.881C82.2461 107.975 81.8145 108.022 81.3223 108.022C80.834 108.022 80.332 107.922 79.8164 107.723C79.3008 107.52 78.8496 107.231 78.4629 106.856ZM81.5039 99.9419C81.2891 99.9419 81.0879 99.9575 80.9004 99.9888V107.547C81.0801 107.579 81.2812 107.594 81.5039 107.594C82.5469 107.594 83.4258 107.247 84.1406 106.551C84.8867 105.829 85.2598 104.895 85.2598 103.75C85.2598 102.661 84.9102 101.754 84.2109 101.032C83.5039 100.305 82.6016 99.9419 81.5039 99.9419ZM87.386 107.999C87.3118 107.991 87.2552 107.958 87.2161 107.899C87.177 107.84 87.1614 107.776 87.1692 107.706C87.1888 107.584 87.2259 107.473 87.2805 107.372C87.3352 107.27 87.3743 107.194 87.3977 107.143C87.4251 107.092 87.4524 107.036 87.4798 106.973L87.7024 106.458L90.1106 99.2446L92.7005 104.249L95.2141 99.2446L98.22 107.911H95.0735L93.6204 103.434L91.3704 108.122L89.0032 103.903L88.1829 106.463C88.054 106.749 87.9622 106.991 87.9075 107.19C87.8528 107.389 87.8079 107.543 87.7727 107.653C87.6946 107.899 87.5657 108.014 87.386 107.999ZM103.997 105.479L104.518 105.502C105.276 105.502 105.901 105.252 106.393 104.752C106.893 104.249 107.155 103.596 107.178 102.795C107.221 101.561 106.628 100.727 105.397 100.293C104.936 100.129 104.336 100.047 103.598 100.047H103.106V107.911H100.118V99.6196H102.362C103.573 99.6196 104.303 99.6372 104.553 99.6724C104.803 99.7075 105.063 99.7524 105.333 99.8071C105.606 99.8618 105.899 99.981 106.211 100.165C106.528 100.348 106.795 100.567 107.014 100.821C107.456 101.336 107.669 101.942 107.653 102.637C107.629 103.524 107.37 104.262 106.874 104.852C106.37 105.446 105.674 105.813 104.788 105.954C104.53 105.989 104.327 106.006 104.178 106.006C103.827 106.006 103.651 105.911 103.651 105.719C103.651 105.649 103.682 105.592 103.745 105.549C103.807 105.502 103.891 105.479 103.997 105.479ZM111.197 106.868C110.482 106.868 109.994 106.862 109.732 106.85L109.562 107.254C109.512 107.368 109.465 107.487 109.422 107.612C109.332 107.854 109.207 107.975 109.047 107.975C108.973 107.975 108.912 107.952 108.865 107.905C108.818 107.858 108.795 107.809 108.795 107.758C108.795 107.672 108.832 107.577 108.906 107.471C109.023 107.307 109.139 107.092 109.252 106.827C108.916 106.795 108.748 106.698 108.748 106.534C108.748 106.37 108.844 106.288 109.035 106.288C109.152 106.288 109.289 106.307 109.445 106.346L112.369 99.2446L116.377 107.911H113.324L112.838 106.868H111.197ZM109.92 106.393C110.295 106.424 110.631 106.44 110.928 106.44H112.644L111.18 103.282L109.92 106.393ZM118.925 107.073L118.943 107.659C118.943 107.76 118.915 107.838 118.86 107.893C118.806 107.948 118.739 107.975 118.661 107.975C118.587 107.975 118.525 107.95 118.474 107.899C118.423 107.848 118.398 107.793 118.398 107.735C118.398 107.672 118.401 107.616 118.409 107.565C118.421 107.51 118.431 107.45 118.439 107.383C118.458 107.27 118.468 106.987 118.468 106.534V99.2446L124.837 104.295V100.803C124.837 100.538 124.829 100.348 124.814 100.235C124.794 100.051 124.784 99.9224 124.784 99.8481C124.784 99.6528 124.868 99.5552 125.036 99.5552C125.103 99.5552 125.165 99.5786 125.224 99.6255C125.286 99.6724 125.318 99.7407 125.318 99.8306V100.036L125.294 100.885V108.233L118.925 103.235V107.073ZM130.309 107.67C130.207 107.874 130.073 107.975 129.905 107.975C129.737 107.975 129.653 107.889 129.653 107.717C129.653 107.612 129.704 107.497 129.805 107.372C130.008 107.129 130.202 106.85 130.385 106.534L130.684 106L127.204 99.6196H130.62L132.295 103.153L133.795 100.487C133.905 100.284 133.998 100.079 134.077 99.8716C134.155 99.6606 134.258 99.5552 134.387 99.5552C134.547 99.5552 134.627 99.6353 134.627 99.7954C134.627 99.8892 134.592 99.9966 134.522 100.118L130.514 107.266C130.471 107.344 130.436 107.409 130.409 107.459L130.309 107.67Z"
        fill="#F3F3F3">
    </path>
</svg>