<svg width="256" height="256" viewBox="0 0 256 256" fill="none" xmlns="http://www.w3.org/2000/svg">
    <g clip-path="url(#clip0_1_1126)">
        <path fill-rule="evenodd" clip-rule="evenodd"
            d="M0.000110489 200.533V55.4668C-0.0144503 48.1787 1.4103 40.9595 4.1926 34.2234C6.97491 27.4873 11.06 21.3669 16.2134 16.2134C21.3669 11.06 27.4873 6.97491 34.2234 4.1926C40.9595 1.4103 48.1787 -0.0144503 55.4668 0.000110489H200.533C207.822 -0.0144503 215.041 1.4103 221.777 4.1926C228.513 6.97491 234.633 11.06 239.787 16.2134C244.94 21.3669 249.025 27.4873 251.808 34.2234C254.59 40.9595 256.015 48.1787 256 55.4668V200.533C256.015 207.822 254.59 215.041 251.808 221.777C249.025 228.513 244.94 234.633 239.787 239.787C234.633 244.94 228.513 249.025 221.777 251.808C215.041 254.59 207.822 256.015 200.533 256H55.4668C40.7582 255.993 26.654 250.147 16.2534 239.747C5.85287 229.346 0.00689438 215.242 0.000110489 200.533Z"
            fill="url(#paint0_linear_1_1126)" />
        <path fill-rule="evenodd" clip-rule="evenodd"
            d="M204.8 185.6C207.045 185.592 209.249 185.004 211.2 183.893L160 132.693L147.413 145.28C144.834 147.736 141.785 149.645 138.448 150.891C135.112 152.138 131.558 152.696 128 152.533C124.44 152.716 120.881 152.166 117.542 150.919C114.202 149.671 111.155 147.752 108.587 145.28L96 132.693L44.8 183.893C46.7399 185.03 48.9516 185.62 51.2 185.6H204.8ZM164.48 128L215.68 179.2C216.981 177.333 217.586 175.067 217.387 172.8V128C204.8 132.693 211.2 144.872 217.387 128H164.48ZM38.4 172.8C38.4082 175.045 38.9961 177.249 40.1067 179.2L91.3067 128H38.4C44.8 144.872 51.2 132.693 38.4 128L38.4 172.8Z"
            fill="white" />
        <path
            d="M211.2 72.1067L142.72 140.587C140.77 142.46 138.46 143.918 135.93 144.872C133.399 145.825 130.701 146.255 128 146.133C125.299 146.255 122.601 145.825 120.07 144.872C117.54 143.918 115.23 142.46 113.28 140.587L44.8 72.1067C46.7508 70.9961 111.035 115.208 113.28 115.2H142.72C144.965 115.208 209.249 70.9961 211.2 72.1067Z"
            fill="white" />
    </g>
    <defs>
        <linearGradient id="paint0_linear_1_1126" x1="128" y1="0.000110489" x2="128" y2="256.002"
            gradientUnits="userSpaceOnUse">
            <stop stop-color="#1D6FF2" />
            <stop offset="1" stop-color="#1AC8FC" />
        </linearGradient>
        <clipPath id="clip0_1_1126">
            <rect width="256" height="256" fill="white" />
        </clipPath>
    </defs>
</svg>