<svg width="344" height="499" viewBox="0 0 344 499" fill="none" xmlns="http://www.w3.org/2000/svg">
<path d="M343.432 435.893C343.112 435.244 342.601 434.708 341.967 434.357C341.334 434.006 340.609 433.856 339.888 433.928L323.817 353.991C324.32 353.883 324.794 353.667 325.206 353.358C325.617 353.049 325.957 352.655 326.201 352.202C326.445 351.749 326.587 351.248 326.618 350.734C326.65 350.221 326.569 349.707 326.382 349.227C326.195 348.748 325.906 348.314 325.535 347.957C325.164 347.6 324.72 347.327 324.234 347.158C323.747 346.989 323.23 346.928 322.718 346.978C322.205 347.029 321.71 347.189 321.266 347.45C320.994 347.588 320.74 347.758 320.509 347.957L287.898 316.466C288.211 316.076 288.437 315.624 288.561 315.14C288.685 314.656 288.705 314.151 288.618 313.659C288.532 313.167 288.342 312.698 288.06 312.285C287.778 311.872 287.412 311.523 286.985 311.262C286.558 311.002 286.081 310.835 285.585 310.772C285.088 310.71 284.584 310.755 284.107 310.902C283.629 311.05 283.188 311.298 282.814 311.629C282.439 311.96 282.14 312.367 281.935 312.823L234.832 296.677C235.035 295.851 234.929 294.979 234.535 294.224C234.141 293.469 233.486 292.883 232.692 292.575L265.343 179.651C265.901 179.772 266.481 179.757 267.032 179.606C267.583 179.456 268.09 179.175 268.509 178.788C268.929 178.401 269.248 177.918 269.442 177.381C269.635 176.843 269.695 176.268 269.619 175.702C269.542 175.136 269.33 174.597 269.001 174.13C268.671 173.663 268.234 173.283 267.727 173.02C267.219 172.758 266.656 172.621 266.085 172.622C265.513 172.623 264.95 172.762 264.444 173.026C263.952 173.262 263.524 173.614 263.197 174.05L142.945 98.1363C143.625 97.6205 144.097 96.877 144.274 96.0417C144.451 95.2065 144.321 94.3354 143.908 93.5876C143.496 92.8398 142.827 92.2654 142.025 91.9693C141.224 91.6732 140.342 91.6753 139.542 91.9751C139.386 92.0535 139.236 92.1432 139.092 92.2434L105.684 52.028C106.067 51.636 106.354 51.1608 106.522 50.6395C106.691 50.1182 106.737 49.5649 106.656 49.0229C106.575 48.4808 106.37 47.9647 106.057 47.5148C105.744 47.0649 105.331 46.6935 104.85 46.4294L130.437 -14.4991L131.022 -13.8229L130.674 -15.0876L130.794 -15.4673L130.544 -15.4565L101.769 -123.74C101.88 -123.776 101.988 -123.819 102.093 -123.869C102.81 -124.211 103.392 -124.783 103.745 -125.494C104.099 -126.204 104.204 -127.013 104.044 -127.791C103.884 -128.569 103.469 -129.271 102.863 -129.785C102.258 -130.3 101.497 -130.597 100.703 -130.629C99.9093 -130.662 99.1275 -130.428 98.4824 -129.965C97.8372 -129.502 97.3659 -128.836 97.1436 -128.074C96.9213 -127.312 96.9608 -126.497 97.2558 -125.76C97.5508 -125.023 98.0842 -124.405 98.7712 -124.005L77.4137 -78.41C77.3266 -78.3704 77.2348 -78.3396 77.1545 -78.2978C76.7287 -78.0931 76.3487 -77.8046 76.0371 -77.4497L6.80388 -127.69C7.17333 -128.298 7.35116 -129.004 7.3143 -129.716C7.27743 -130.427 7.02758 -131.111 6.59712 -131.679C6.16665 -132.247 5.57544 -132.673 4.90011 -132.901C4.22479 -133.129 3.49652 -133.15 2.80968 -132.96C2.12284 -132.769 1.50907 -132.378 1.04802 -131.835C0.586959 -131.292 0.299852 -130.623 0.223882 -129.915C0.147913 -129.207 0.286608 -128.492 0.621989 -127.863C0.957356 -127.235 1.47393 -126.721 2.10477 -126.389L-21.0646 -71.8615C-21.5633 -72.0207 -22.0912 -72.0668 -22.6099 -71.9966C-23.1286 -71.9263 -23.6251 -71.7414 -24.0632 -71.4553C-24.5012 -71.1691 -24.8698 -70.789 -25.1423 -70.3425C-25.4147 -69.896 -25.5841 -69.3944 -25.6381 -68.8742L-67.8692 -69.4009C-67.9146 -70.0694 -68.1481 -70.7116 -68.5429 -71.2535C-68.9377 -71.7953 -69.4777 -72.2148 -70.1006 -72.4634C-70.7235 -72.712 -71.4039 -72.7797 -72.0634 -72.6587C-72.7229 -72.5376 -73.3346 -72.2328 -73.8281 -71.7793C-74.3215 -71.3258 -74.6765 -70.7422 -74.8522 -70.0957C-75.0279 -69.4491 -75.0171 -68.766 -74.821 -68.1251C-74.625 -67.4842 -74.2517 -66.9116 -73.7441 -66.4734C-73.2366 -66.0351 -72.6155 -65.7491 -71.9525 -65.6482L-75.5409 -19.0056C-76.0831 -18.9969 -76.6158 -18.8632 -77.0977 -18.6149C-77.5795 -18.3667 -77.9974 -18.0106 -78.3188 -17.5744C-78.6402 -17.1383 -78.8564 -16.6338 -78.9506 -16.1003C-79.0448 -15.5668 -79.0145 -15.0187 -78.862 -14.4987L-124.137 1.18747C-124.343 0.702931 -124.653 0.269926 -125.046 -0.0803305C-125.439 -0.430589 -125.905 -0.689357 -126.41 -0.837956C-126.916 -0.986555 -127.447 -1.02129 -127.967 -0.939658C-128.488 -0.85801 -128.983 -0.662051 -129.418 -0.365874C-129.853 -0.0697116 -130.217 0.319283 -130.483 0.773017C-130.749 1.22675 -130.911 1.73393 -130.957 2.25795C-131.004 2.78198 -130.933 3.30978 -130.75 3.80329C-130.567 4.29681 -130.277 4.74374 -129.901 5.11182L-153.541 32.1471C-154.058 31.7666 -154.67 31.5353 -155.31 31.4784C-155.95 31.4216 -156.593 31.5413 -157.169 31.8247C-157.475 31.969 -157.756 32.1595 -158.003 32.3894L-198.414 -4.35115C-198.021 -4.85262 -197.77 -5.45058 -197.687 -6.08245C-197.605 -6.71431 -197.694 -7.35683 -197.945 -7.94277C-198.196 -8.52871 -198.6 -9.0365 -199.115 -9.41298C-199.63 -9.78946 -200.237 -10.0208 -200.871 -10.0828C-201.506 -10.1447 -202.146 -10.035 -202.724 -9.76519C-203.301 -9.49533 -203.796 -9.07524 -204.155 -8.5489C-204.514 -8.02254 -204.725 -7.4093 -204.766 -6.77334C-204.806 -6.13737 -204.675 -5.50208 -204.386 -4.93399C-204.324 -4.80711 -204.256 -4.68364 -204.181 -4.56409L-267.617 44.9948C-268.065 44.5088 -268.641 44.1573 -269.278 43.9799C-269.916 43.8025 -270.59 43.8062 -271.225 43.9905C-271.86 44.1748 -272.431 44.5325 -272.874 45.0233C-273.317 45.5142 -273.614 46.1187 -273.732 46.7691C-273.85 47.4195 -273.784 48.0899 -273.541 48.7051C-273.299 49.3203 -272.889 49.8558 -272.359 50.2516C-271.829 50.6473 -271.199 50.8876 -270.54 50.9454C-269.881 51.0032 -269.219 50.8763 -268.628 50.5789C-268.146 50.3465 -267.724 50.0046 -267.396 49.5804L-168.279 113.453C-168.576 114.112 -168.663 114.846 -168.528 115.556C-168.393 116.267 -168.043 116.918 -167.524 117.423C-167.006 117.927 -166.344 118.26 -165.63 118.375C-164.916 118.491 -164.184 118.384 -163.533 118.07C-162.698 117.657 -162.059 116.933 -161.753 116.053C-161.447 115.174 -161.498 114.21 -161.896 113.368C-161.983 113.199 -162.081 113.036 -162.19 112.88L-132.17 84.321C-131.649 84.7978 -130.997 85.1071 -130.299 85.2087C-129.6 85.3103 -128.888 85.1994 -128.253 84.8905C-127.83 84.6914 -127.453 84.4065 -127.147 84.0537L-46.1541 139.359C-46.4862 139.94 -46.6471 140.603 -46.6185 141.272C-46.5899 141.941 -46.3729 142.588 -45.9925 143.14C-45.6121 143.691 -45.0836 144.124 -44.468 144.388C-43.8525 144.653 -43.1747 144.738 -42.5129 144.635C-41.851 144.531 -41.2319 144.244 -40.7268 143.804C-40.2217 143.365 -39.8512 142.791 -39.6578 142.151C-39.4644 141.51 -39.456 140.827 -39.6337 140.182C-39.8114 139.536 -40.1678 138.954 -40.662 138.502L-12.8925 102.683C-12.3841 103.003 -11.8032 103.189 -11.2037 103.224C-10.6042 103.258 -10.0057 103.141 -9.46394 102.883L-9.74692 103.047L48.0409 202.778C47.5259 203.14 47.118 203.634 46.8598 204.209C46.6017 204.783 46.5028 205.416 46.5736 206.042C46.6443 206.667 46.8821 207.262 47.2619 207.765C47.6418 208.268 48.1499 208.659 48.7329 208.898L34.5665 254.946C33.9195 254.801 33.2452 254.84 32.6194 255.058C31.9936 255.276 31.4412 255.664 31.0245 256.179C30.6079 256.694 30.3436 257.315 30.2613 257.972C30.1791 258.629 30.2823 259.296 30.5591 259.898C30.836 260.5 31.2757 261.013 31.8285 261.379C32.3813 261.744 33.0252 261.949 33.6878 261.968C34.3503 261.988 35.0051 261.822 35.5783 261.49C36.1515 261.158 36.6202 260.672 36.9318 260.088L103.667 289.136C103.471 289.959 103.575 290.825 103.961 291.579C104.347 292.332 104.99 292.924 105.773 293.247C106.556 293.569 107.428 293.603 108.234 293.34C109.039 293.078 109.723 292.537 110.165 291.815L151.742 307.95C151.553 308.603 151.558 309.297 151.755 309.948C151.953 310.599 152.336 311.179 152.857 311.616C153.378 312.054 154.015 312.332 154.691 312.415C155.366 312.498 156.051 312.384 156.663 312.085C156.844 311.996 157.017 311.891 157.179 311.771L212.019 372.4C211.615 372.856 211.337 373.409 211.212 374.005C211.086 374.6 211.117 375.218 211.303 375.799C211.487 376.379 211.82 376.901 212.267 377.315C212.715 377.728 213.262 378.019 213.855 378.158L207.072 433.811C206.521 433.766 205.967 433.849 205.454 434.054C204.942 434.259 204.484 434.581 204.117 434.994C203.75 435.407 203.485 435.899 203.342 436.433C203.199 436.966 203.183 437.525 203.294 438.066C203.405 438.607 203.64 439.115 203.982 439.549C204.323 439.984 204.761 440.332 205.261 440.568C205.761 440.804 206.309 440.92 206.861 440.908C207.414 440.895 207.956 440.754 208.444 440.496L234.62 474.821L248.469 492.945C248.057 493.379 247.762 493.909 247.611 494.488C247.459 495.066 247.456 495.673 247.602 496.253C247.747 496.833 248.037 497.367 248.444 497.806C248.851 498.244 249.361 498.573 249.929 498.762C250.497 498.951 251.103 498.994 251.692 498.887C252.28 498.78 252.832 498.527 253.297 498.15C253.761 497.773 254.123 497.285 254.348 496.731C254.573 496.178 254.655 495.576 254.586 494.982L302.612 480.229L302.673 480.367C303.151 481.08 303.871 481.595 304.699 481.819C305.528 482.043 306.409 481.96 307.181 481.586C307.953 481.212 308.564 480.572 308.9 479.783C309.236 478.994 309.276 478.111 309.012 477.295C308.816 476.892 308.545 476.531 308.213 476.231L338.196 440.371C338.84 440.783 339.6 440.977 340.362 440.924C341.125 440.871 341.85 440.574 342.431 440.076C343.011 439.579 343.415 438.908 343.583 438.163C343.752 437.418 343.676 436.638 343.366 435.939L343.432 435.893ZM252.944 492.237C252.444 491.938 251.876 491.768 251.294 491.744C250.712 491.719 250.132 491.84 249.609 492.096C249.399 492.194 249.201 492.314 249.019 492.455L233.322 471.908L209.064 440.162C209.336 439.959 209.576 439.715 209.776 439.44L270.821 464.878L252.944 492.237ZM107.308 286.742L106.874 253.47L153.8 250.101C153.853 250.434 153.955 250.758 154.102 251.061C154.174 251.208 154.257 251.348 154.35 251.482L109.551 287.791C108.956 287.18 108.158 286.807 107.308 286.742ZM37.2933 257.802C37.2366 257.468 37.1325 257.144 36.9843 256.84C36.8962 256.664 36.7947 256.495 36.6808 256.335L103.361 198.861C103.95 199.423 104.713 199.766 105.524 199.833L106.215 252.86L37.2933 257.802ZM-15.0679 -68.61L-27.17 -28.8358L-22.2697 -64.952C-21.3283 -64.9218 -20.4134 -65.2657 -19.7258 -65.9085C-19.0382 -66.5512 -18.6339 -67.4403 -18.6016 -68.3809L-15.0679 -68.61ZM5.32467 -126.285C5.74851 -126.489 6.12756 -126.775 6.43995 -127.126L75.6753 -76.8928C75.3688 -76.3741 75.2014 -75.785 75.1892 -75.1826L-14.1624 -69.3535L3.08298 -126.036C3.83726 -125.869 4.62577 -125.956 5.32467 -126.285ZM262.498 176.461C262.524 176.868 262.623 177.268 262.79 177.641L211.875 205.794C211.395 205.1 210.683 204.599 209.868 204.38C209.052 204.162 208.186 204.24 207.423 204.601L189.164 174.491L262.498 176.461ZM305.701 475.299L305.478 475.318L300.206 424.947C300.496 424.887 300.778 424.791 301.043 424.659C301.739 424.321 302.303 423.762 302.647 423.07L312.201 426.823L305.701 475.299ZM279.425 345.682L275.451 330.957L275.769 330.825C276.39 330.521 276.909 330.042 277.262 329.447L287.514 334.299L298.553 416.572L279.425 345.682ZM274.824 331.124L288.708 382.626L298.295 418.197C298.189 418.235 298.085 418.279 297.984 418.331C297.427 418.598 296.95 419.009 296.603 419.52L238.155 387.372L272.676 330.814C273.346 331.129 274.097 331.227 274.826 331.095L274.824 331.124ZM302.903 422.472C303.143 421.652 303.075 420.772 302.711 419.999C302.348 419.225 301.713 418.611 300.927 418.273L322.012 354.109L312.314 426.157L302.903 422.472ZM319.634 352.183C320 352.941 320.626 353.542 321.398 353.878L300.313 418.043C300.01 417.97 299.698 417.94 299.387 417.952L288.224 334.604L319.506 349.415C319.34 349.856 319.267 350.327 319.289 350.797C319.312 351.268 319.429 351.73 319.636 352.154L319.634 352.183ZM319.771 348.857L288.103 333.873L285.941 317.728C286.202 317.671 286.455 317.583 286.695 317.467C286.969 317.333 287.224 317.162 287.452 316.959L320.063 348.45C319.958 348.57 319.861 348.696 319.772 348.828L319.771 348.857ZM283.192 317.221C283.815 317.637 284.553 317.846 285.302 317.818L287.399 333.503L277.523 328.829C277.688 328.386 277.76 327.914 277.737 327.442C277.714 326.969 277.595 326.507 277.389 326.081C277.211 325.722 276.973 325.395 276.686 325.115L283.192 317.221ZM270.807 326.797L226.631 319.934L231.01 299.387C231.571 299.454 232.139 299.384 232.667 299.184C233.195 298.985 233.667 298.66 234.042 298.24L271.216 325.83C271.036 326.119 270.9 326.432 270.811 326.761L270.807 326.797ZM158.591 308.258C158.535 307.968 158.441 307.688 158.309 307.424C158.061 306.907 157.689 306.46 157.227 306.122L179.596 263.9L228.268 294.305C227.979 294.883 227.853 295.529 227.904 296.173L158.591 308.258ZM-10.5017 96.1542L-7.11155 58.8397C-6.27567 58.8685 -5.45728 58.5973 -4.80448 58.0753L5.74966 66.6144L-9.88187 96.3418C-10.0817 96.2589 -10.2894 96.1961 -10.5017 96.1542ZM-153.633 37.9162C-153.181 37.6086 -152.805 37.2008 -152.536 36.7245C-152.267 36.2481 -152.112 35.7161 -152.082 35.1699L-128.639 34.1649L-130.098 78.191C-130.508 78.2286 -130.907 78.3404 -131.276 78.5207L-153.633 37.9162ZM-129.48 78.1695L-128.023 34.1277L-55.1865 30.9702C-55.1355 31.3391 -55.0269 31.6977 -54.8645 32.033L-54.8019 32.1421L-127.063 79.4518C-127.362 79.0894 -127.729 78.7895 -128.144 78.5694C-128.558 78.3494 -129.012 78.2134 -129.48 78.1695ZM205.802 209.278C205.871 209.424 205.952 209.564 206.043 209.697L159.797 247.07C159.452 246.722 159.037 246.448 158.581 246.267C158.124 246.086 157.635 246.002 157.144 246.019L151.238 202.425L205.469 207.727C205.46 208.263 205.574 208.793 205.802 209.278ZM156.484 246.102C156.226 246.156 155.975 246.242 155.739 246.359C155.493 246.479 155.262 246.626 155.049 246.798L108.111 198.963C108.354 198.757 108.565 198.517 108.738 198.251L150.564 202.339L156.484 246.102ZM109.072 197.64C109.249 197.221 109.338 196.769 109.333 196.314L141.081 176.959L144.155 175.087C144.493 175.537 144.932 175.901 145.438 176.148C145.944 176.395 146.501 176.519 147.064 176.509L150.479 201.686L109.072 197.64ZM143.81 174.524L140.737 176.44L109.239 195.592C109.184 195.304 109.091 195.024 108.964 194.76C108.756 194.337 108.466 193.96 108.112 193.649L117.882 164.745L143.505 172.341C143.362 173.084 143.465 173.855 143.799 174.535L143.81 174.524ZM205.528 207.068L151.137 201.752L147.706 176.436C147.994 176.38 148.274 176.288 148.539 176.161C149.067 175.904 149.524 175.521 149.868 175.044L205.774 206.31C205.657 206.555 205.571 206.813 205.517 207.079L205.528 207.068ZM141.02 98.6559L146.31 169.542C146.004 169.596 145.707 169.693 145.429 169.831C144.622 170.22 143.996 170.903 143.679 171.74L118.09 164.155L140.233 98.5498C140.49 98.6167 140.755 98.6523 141.02 98.6559ZM117.477 163.969L87.7044 155.149C87.8023 154.458 87.6915 153.754 87.3863 153.126C87.2642 152.877 87.1121 152.644 86.9333 152.432L118.492 119.318L138.901 97.8994C139.13 98.0837 139.383 98.2361 139.654 98.3525L117.477 163.969ZM77.9675 -71.6847L73.8868 -39.6182L71.3768 -19.794C70.8028 -19.8134 70.2327 -19.6937 69.7152 -19.445C69.2186 -19.2009 68.7859 -18.8442 68.4516 -18.4034C68.1173 -17.9627 67.8906 -17.45 67.7896 -16.9061L50.4109 -18.4116L77.4678 -71.8271C77.6304 -71.7668 77.7975 -71.7192 77.9675 -71.6847ZM29.7168 81.7679L29.8407 25.5834C30.4152 25.5374 30.969 25.349 31.4521 25.0352C31.9352 24.7214 32.3322 24.2921 32.6072 23.7861L51.4995 30.7689L30.417 81.9138C30.1894 81.8407 29.9547 81.7918 29.7168 81.7679ZM32.8693 23.1905C33.1558 22.3186 33.0936 21.3697 32.6958 20.5423C32.5922 20.3325 32.4706 20.1321 32.3322 19.9434L68.8823 -13.6705C69.0993 -13.4713 69.3422 -13.3021 69.6043 -13.1675L51.7413 30.1668L32.8693 23.1905ZM67.7468 -16.2488C67.7513 -15.7252 67.8715 -15.2089 68.0989 -14.7369C68.2003 -14.5238 68.3245 -14.3223 68.4693 -14.1359L55.4038 -2.13571L31.8874 19.4606C31.7441 19.3263 31.5857 19.2089 31.4155 19.1108L50.1021 -17.7859L67.7468 -16.2488ZM30.8435 18.8189C30.3908 18.638 29.9052 18.5534 29.418 18.5707C28.9308 18.5881 28.4527 18.7069 28.0142 18.9196C27.6545 19.0973 27.3276 19.3346 27.0473 19.6213L-25.0684 -22.9275C-24.8007 -23.3266 -24.6184 -23.7767 -24.5329 -24.2495L49.4128 -17.824L30.8435 18.8189ZM-26.4611 -21.7263C-26.1001 -21.9019 -25.7728 -22.1394 -25.4942 -22.4281L26.6215 20.1208C26.2138 20.7058 25.9948 21.4014 25.9939 22.1144L-14.2777 26.2886L-26.8098 -21.5902C-26.6989 -21.6297 -26.5914 -21.6781 -26.4882 -21.7349L-26.4611 -21.7263ZM26.0998 22.7737C26.1595 23.0637 26.2566 23.3448 26.3886 23.6099C26.4283 23.6932 26.4725 23.7743 26.521 23.8528L-4.51373 52.8381C-4.91345 52.4478 -5.39945 52.157 -5.9325 51.9892C-6.46553 51.8214 -7.03054 51.7814 -7.58177 51.8724L-14.1065 26.9536L26.0998 22.7737ZM-3.80867 53.7979C-3.90598 53.6331 -4.01629 53.4762 -4.13852 53.3289L26.8541 24.3825C27.0672 24.6316 27.3159 24.8479 27.592 25.0246L6.05175 65.9866L-4.34261 57.5798C-3.90741 57.0594 -3.63036 56.4255 -3.54419 55.7527C-3.458 55.0799 -3.56625 54.3964 -3.85618 53.7829L-3.80867 53.7979ZM28.2299 25.3447C28.4906 25.4677 28.7669 25.5547 29.0511 25.6032L29.0919 81.8097C28.6674 81.8563 28.2548 81.9789 27.8739 82.1716C27.5113 82.3523 27.1827 82.5943 26.9027 82.8869L6.58755 66.3937L28.2299 25.3447ZM82.6708 151.493L82.5348 151.569L52.5256 113.802L31.8272 87.7907C32.3632 87.2777 32.7228 86.6082 32.8544 85.8782L95.3999 91.4057L84.7512 151.164C84.0403 151.055 83.3132 151.17 82.6708 151.493ZM32.3922 83.4597C32.0594 82.9114 31.5844 82.4632 31.0175 82.1624L52.129 30.9969L99.8104 48.6216C99.6088 49.3245 99.6343 50.0732 99.883 50.7611L32.3922 83.4597ZM100.016 48.0156L52.3551 30.3972L70.2096 -12.9099C70.9502 -12.6819 71.7455 -12.7069 72.47 -12.9809L101.359 46.5229C100.775 46.8752 100.309 47.3922 100.018 48.0089L100.016 48.0156ZM74.4151 -17.8091C74.1819 -18.2815 73.8467 -18.6963 73.4336 -19.0235C73.0206 -19.3508 72.54 -19.5822 72.0265 -19.7013L73.8678 -34.1539L78.6261 -71.5967C78.7725 -71.5949 78.9189 -71.6011 79.0646 -71.6151L90.3855 -14.0341L73.3647 -13.4296C74.0211 -13.9259 74.4847 -14.6343 74.6767 -15.4341C74.8686 -16.234 74.7769 -17.0757 74.4172 -17.8159L74.4151 -17.8091ZM75.7008 -73.3C75.9939 -72.8252 76.3946 -72.4259 76.8707 -72.1343L49.7073 -18.4989L-24.5019 -24.9404C-24.4984 -25.3431 -24.567 -25.7433 -24.7044 -26.122L75.7008 -73.3ZM-27.4506 -21.4267L-14.9472 26.3536L-48.2099 29.805C-48.2716 29.5156 -48.3686 29.2347 -48.4987 28.9689C-48.8232 28.3074 -49.3453 27.7629 -49.9927 27.4105L-29.0817 -21.5302C-28.5534 -21.3697 -27.9949 -21.3343 -27.4506 -21.4267ZM-48.172 30.443L-14.7811 26.9872L-8.21117 52.0469C-8.32658 52.0844 -8.43869 52.1314 -8.54633 52.1874C-9.09943 52.4522 -9.57232 52.8588 -9.91691 53.3657L-48.473 31.9208C-48.268 31.4554 -48.1654 30.9515 -48.172 30.443ZM-9.30199 96.5616L6.24436 66.9863L26.4261 83.3107C26.1481 83.7194 25.9598 84.1822 25.8735 84.6688C25.7872 85.1554 25.8048 85.6548 25.9253 86.1342L-7.95971 97.9381C-8.26283 97.3692 -8.71815 96.8957 -9.27486 96.5702L-9.30199 96.5616ZM-7.67548 98.5045L26.1806 86.7213L26.2179 86.7927C26.6318 87.627 27.3567 88.266 28.2368 88.5723C29.1169 88.8786 30.0819 88.8278 30.9245 88.4307C31.0583 88.3611 31.1875 88.2825 31.3167 88.2039L77.6057 146.395L82.0006 151.915C81.8125 152.063 81.6418 152.232 81.4916 152.418L-7.72144 100.949C-7.41215 100.17 -7.38866 99.3063 -7.65513 98.5109L-7.67548 98.5045ZM87.5305 155.772L117.247 164.582L107.546 193.27C107.072 192.996 106.542 192.837 105.996 192.805C105.45 192.773 104.905 192.869 104.403 193.085L86.3195 157.463C86.8933 157.041 87.3232 156.453 87.5509 155.779L87.5305 155.772ZM160.425 247.991C160.354 247.846 160.273 247.707 160.184 247.572L206.43 210.198C206.61 210.381 206.809 210.543 207.023 210.683L179.339 262.94L160.4 251.106C160.647 250.626 160.779 250.096 160.787 249.557C160.795 249.018 160.678 248.484 160.446 247.997L160.425 247.991ZM229.863 292.676C229.369 292.919 228.938 293.273 228.604 293.711L179.905 263.297L207.618 210.997C208.219 211.248 208.878 211.329 209.522 211.231L230.236 292.555L229.863 292.676ZM206.857 204.907C206.544 205.139 206.271 205.421 206.05 205.741L150.198 174.492C150.355 174.157 150.455 173.798 150.495 173.431L188.43 174.453L206.857 204.907ZM150.477 172.799C150.422 171.906 150.027 171.068 149.374 170.457C148.72 169.845 147.858 169.506 146.962 169.509L141.668 98.6363C141.889 98.6004 142.107 98.5441 142.318 98.4682L187.984 173.806L150.477 172.799ZM137.879 96.6908C138.014 96.9692 138.182 97.23 138.381 97.4673L86.4261 151.982C86.1025 151.708 85.7321 151.496 85.3329 151.354L95.9686 91.4953L137.488 95.1592C137.511 95.6898 137.657 96.2079 137.915 96.6722L137.879 96.6908ZM95.4796 90.7973L32.8729 85.2506C32.874 84.8328 32.7998 84.4181 32.654 84.0265L100.183 51.3475C100.646 52.121 101.392 52.6844 102.263 52.9187L95.4796 90.7973ZM101.923 46.246L73.2609 -12.7916L90.4595 -13.3923L102.159 46.1859C102.091 46.1988 102.023 46.215 101.957 46.2343L101.923 46.246ZM79.6477 -71.7372C79.8353 -71.7941 80.0191 -71.8633 80.1977 -71.9441C80.3729 -72.0305 80.5399 -72.1326 80.6966 -72.2492L129.618 -15.4052L90.9904 -14.0599L79.6477 -71.7372ZM75.1796 -74.5596C75.2087 -74.3666 75.2564 -74.1769 75.322 -73.9931L75.2177 -73.78L-24.9887 -26.6885C-25.3839 -27.3502 -25.9834 -27.8658 -26.6971 -28.1578L-14.3648 -68.6868L75.1796 -74.5596ZM-67.8534 -68.7401L-25.6244 -68.2066C-25.5918 -67.7684 -25.4728 -67.3409 -25.2743 -66.9487C-25.149 -66.6961 -24.9963 -66.4581 -24.8189 -66.2389L-46.7274 -44.4421L-68.665 -66.8491C-68.2137 -67.3856 -67.9313 -68.0435 -67.8534 -68.7401ZM-24.368 -65.7989C-23.9446 -65.4436 -23.4428 -65.1937 -22.904 -65.0697L-27.8762 -28.4172C-28.4603 -28.4474 -29.0424 -28.3279 -29.5671 -28.07C-29.8087 -27.9495 -30.037 -27.8041 -30.2483 -27.636L-46.2694 -43.9774L-24.368 -65.7989ZM-30.7131 -27.1787C-31.0242 -26.8175 -31.2585 -26.3968 -31.4016 -25.9421C-31.5447 -25.4875 -31.5937 -25.0084 -31.5455 -24.5341L-72.0883 -16.3463C-72.1495 -16.5788 -72.2333 -16.8049 -72.3384 -17.0212C-72.4444 -17.2432 -72.5732 -17.4536 -72.7227 -17.649L-46.7188 -43.545L-30.7131 -27.1787ZM-71.9311 -15.708L-36.874 -22.7981L-73.3577 -12.6692C-72.8877 -13.0189 -72.5115 -13.4794 -72.2626 -14.0095C-72.0138 -14.5397 -71.8999 -15.1231 -71.9311 -15.708ZM-31.2762 -23.6594L-31.1566 -23.3758C-30.8522 -22.7175 -30.3535 -22.1679 -29.7277 -21.8006L-50.6387 27.1401C-51.4504 26.8779 -52.3297 26.9195 -53.1127 27.2571C-53.8956 27.5948 -54.5289 28.2055 -54.8943 28.9754L-123.87 3.5373C-123.755 3.03063 -123.752 2.5048 -123.862 1.99692L-31.2762 -23.6594ZM-55.0507 29.5671C-55.114 29.7989 -55.1515 30.0371 -55.1623 30.2772L-127.951 33.4497L-127.048 6.26325C-126.396 6.22357 -125.768 6.00528 -125.232 5.63235C-124.696 5.25941 -124.273 4.74621 -124.01 4.14898L-55.0507 29.5671ZM-127.701 6.25153L-128.65 33.513L-152.098 34.5315C-152.15 34.1648 -152.259 33.8086 -152.422 33.4755C-152.583 33.1499 -152.79 32.8489 -153.036 32.5817L-129.412 5.57144C-128.923 5.94112 -128.348 6.1787 -127.741 6.26118L-127.701 6.25153ZM-158.732 36.5275C-158.336 37.3448 -157.639 37.9776 -156.787 38.293C-155.935 38.6084 -154.994 38.5821 -154.161 38.2195L-131.98 78.6717L-198.283 -3.3707L-158.418 32.8774C-158.805 33.3971 -159.043 34.0127 -159.105 34.6577C-159.168 35.3027 -159.052 35.9527 -158.772 36.5371L-158.732 36.5275ZM-199.679 -3.29597C-199.535 -3.36565 -199.398 -3.44689 -199.267 -3.53886L-132.342 79.2511C-132.705 79.6307 -132.979 80.087 -133.143 80.5864L-178.265 69.5504L-199.903 -3.20234C-199.826 -3.22891 -199.752 -3.26017 -199.679 -3.29597ZM-126.602 80.1412L-126.692 79.9786L-54.4441 32.6646C-54.1168 33.0697 -53.7045 33.3982 -53.2363 33.6267C-52.7681 33.8552 -52.2554 33.9782 -51.7345 33.987L-49.386 64.0677L-126.414 80.6103C-126.467 80.4505 -126.53 80.2939 -126.602 80.1412ZM-51.0961 33.9495C-50.7697 33.8869 -50.4541 33.7779 -50.1587 33.626C-49.6078 33.3578 -49.1356 32.9519 -48.7881 32.4476L-10.257 53.8773C-10.5121 54.4537 -10.6063 55.0885 -10.5294 55.7143L-48.7584 63.9225L-51.0961 33.9495ZM-10.4057 56.3644C-10.3565 56.5296 -10.2951 56.6909 -10.2219 56.847C-9.89491 57.5161 -9.366 58.0658 -8.7098 58.4186L-41.9955 137.642C-42.3221 137.54 -42.6619 137.486 -43.0042 137.481L-48.7155 64.5918L-10.4057 56.3644ZM-41.4173 137.891L-8.06169 58.6822L-7.7359 58.7848L-11.1273 96.151C-11.6063 96.1679 -12.0762 96.2868 -12.5054 96.4998C-13.3395 96.9141 -13.9775 97.6389 -14.2823 98.5185C-14.5871 99.398 -14.5343 100.362 -14.1353 101.204C-13.948 101.592 -13.6884 101.942 -13.3705 102.234L-41.14 138.053L-41.4173 137.891ZM-8.03998 101.535L81.1027 152.966C80.8356 153.459 80.689 154.008 80.6747 154.568C80.6604 155.128 80.7789 155.684 81.0205 156.19C81.2494 156.651 81.574 157.058 81.9726 157.384L51.705 202.537C51.2243 202.275 50.6886 202.128 50.1411 202.11C49.5936 202.092 49.0495 202.202 48.5526 202.432L-9.18892 102.649C-8.71945 102.374 -8.3194 101.995 -8.01961 101.541L-8.03998 101.535ZM53.2125 204.1C52.9902 203.637 52.6672 203.23 52.2671 202.908L81.8382 158.735L60.0252 203.621L53.4257 204.726C53.3758 204.511 53.3044 204.301 53.2125 204.1ZM82.9725 157.952C83.4196 158.122 83.8966 158.198 84.3741 158.177C84.8517 158.155 85.3198 158.036 85.7497 157.828L103.817 193.408C103.297 193.752 102.879 194.228 102.605 194.787C102.33 195.347 102.21 195.969 102.255 196.59L60.8043 203.516L82.9725 157.952ZM102.392 197.222C102.453 197.441 102.533 197.653 102.633 197.857C102.716 198.035 102.818 198.205 102.936 198.362L36.2539 255.842C36.071 255.666 35.8708 255.508 35.6562 255.371L60.5127 204.229L102.392 197.222ZM106.177 199.822C106.58 199.78 106.973 199.669 107.339 199.495L107.573 199.367L154.584 247.255C154.063 247.871 153.772 248.648 153.758 249.455L106.89 252.827L106.177 199.822ZM157.483 253.049C157.942 253.025 158.392 252.914 158.809 252.722C159.306 252.479 159.738 252.122 160.07 251.68L179.045 263.541L156.672 305.776C156.362 305.626 156.033 305.523 155.694 305.468L157.483 253.049ZM158.667 308.87L228.027 296.778C228.083 296.988 228.159 297.191 228.253 297.386C228.462 297.82 228.759 298.207 229.125 298.521C229.491 298.835 229.918 299.069 230.38 299.211L225.988 319.799L158.639 309.339C158.659 309.183 158.669 309.027 158.667 308.87ZM226.502 320.535L270.712 327.408C270.677 328.01 270.795 328.612 271.057 329.156C271.122 329.289 271.196 329.417 271.279 329.539L228.091 363.694L217.181 372.282C216.756 371.844 216.225 371.523 215.64 371.349L226.502 320.535ZM217.854 373.201C217.786 373.063 217.708 372.929 217.623 372.8L271.678 330.052C271.816 330.197 271.966 330.329 272.128 330.447L237.584 387.028L217.867 376.194C218.083 375.724 218.194 375.213 218.191 374.696C218.189 374.18 218.074 373.669 217.854 373.201ZM237.844 387.908L296.351 420.082C296.121 420.618 296.027 421.203 296.077 421.784L210.485 436.95C210.444 436.556 210.333 436.173 210.155 435.818C209.954 435.396 209.669 435.02 209.317 434.712L237.844 387.908ZM210.129 438.865C210.319 438.468 210.434 438.039 210.467 437.6L296.155 422.413C296.209 422.619 296.284 422.819 296.377 423.012C296.607 423.489 296.946 423.907 297.365 424.232L271.203 464.306L210.129 438.865ZM297.909 424.589C298.428 424.863 299.006 425.004 299.593 425L304.866 475.438C304.705 475.489 304.548 475.552 304.397 475.626C303.626 475.999 303.019 476.639 302.688 477.428L271.815 464.565L297.909 424.589ZM306.385 475.305L312.876 427.05L336.905 436.462C336.666 437.296 336.74 438.189 337.114 438.972C337.284 439.325 337.509 439.648 337.783 439.928L307.785 475.813C307.352 475.539 306.866 475.362 306.358 475.297L306.385 475.305ZM339.278 434.064C339.097 434.118 338.919 434.184 338.746 434.262C338.053 434.603 337.489 435.161 337.142 435.851L312.966 426.385L322.679 354.147C322.853 354.151 323.027 354.144 323.2 354.125L339.278 434.064ZM281.777 313.444C281.579 314.238 281.669 315.077 282.031 315.812C282.21 316.169 282.445 316.495 282.727 316.776L276.231 324.711C275.527 324.234 274.674 324.028 273.83 324.133C272.986 324.237 272.209 324.645 271.643 325.279L234.469 297.688C234.546 297.566 234.614 297.437 234.672 297.305L281.777 313.444ZM232.086 292.392C231.687 292.312 231.278 292.304 230.877 292.369L210.151 211.057C210.274 211.014 210.394 210.965 210.511 210.909C211.324 210.506 211.953 209.806 212.267 208.955C212.581 208.103 212.556 207.163 212.199 206.328L263.114 178.175C263.509 178.763 264.075 179.215 264.737 179.468L232.086 292.392ZM262.869 174.64C262.679 175.006 262.554 175.403 262.5 175.813L188.745 173.83L143.617 99.3169L262.869 174.64ZM138.591 92.6519C138.088 93.1587 137.749 93.8052 137.619 94.5073L96.1535 90.8604L102.893 53.0499C103.703 53.1279 104.515 52.9127 105.18 52.4433L138.591 92.6519ZM104.251 46.1739C103.786 46.0234 103.295 45.9703 102.808 46.0178L91.1226 -13.4369L129.851 -14.7952L104.251 46.1739ZM99.3429 -123.736C99.9127 -123.534 100.525 -123.479 101.121 -123.579L129.644 -16.4107L81.1893 -72.653C81.7002 -73.1762 82.035 -73.8458 82.1467 -74.5684C82.2584 -75.291 82.1416 -76.0306 81.8125 -76.6839C81.4834 -77.3373 80.9586 -77.8718 80.3111 -78.213C79.6636 -78.5542 78.9258 -78.685 78.2006 -78.5871L99.3429 -123.736ZM1.69844 -123.7L-14.8612 -69.2903L-18.6671 -69.0499C-18.717 -69.3923 -18.8214 -69.7246 -18.9765 -70.0341C-19.2983 -70.7001 -19.8239 -71.2467 -20.4771 -71.5946L1.69844 -123.7ZM-71.2989 -65.5915C-70.7858 -65.5987 -70.2804 -65.7167 -69.8173 -65.9374C-69.5748 -66.0602 -69.3458 -66.208 -69.134 -66.3782L-47.1854 -43.9825L-73.1493 -18.1186C-73.6446 -18.5492 -74.2478 -18.837 -74.8941 -18.9511L-71.2989 -65.5915ZM-78.6219 -13.8865C-78.3512 -13.3619 -77.9541 -12.9127 -77.4663 -12.5797C-76.9785 -12.2466 -76.4155 -12.04 -75.8281 -11.9786L-117.434 -0.436378L-78.6219 -13.8865ZM-203.77 -4.04698C-203.356 -3.61674 -202.841 -3.29728 -202.272 -3.11806C-201.702 -2.93884 -201.097 -2.90562 -200.512 -3.02141L-178.969 69.3439L-266.685 47.8891C-266.584 47.1889 -266.694 46.4743 -267.001 45.8368C-267.064 45.7121 -267.132 45.5909 -267.208 45.4737L-203.77 -4.04698ZM-267.059 49.0307C-266.98 48.8781 -266.911 48.7208 -266.851 48.5596L-178.767 70.1006L-166.418 111.617L-166.599 111.694C-167.141 111.955 -167.606 112.353 -167.947 112.849L-267.059 49.0307ZM-162.602 112.341C-163.02 111.94 -163.529 111.646 -164.086 111.487C-164.643 111.327 -165.231 111.306 -165.798 111.424L-178.041 70.3067L-133.275 81.2452C-133.353 81.9255 -133.226 82.6134 -132.913 83.2224C-132.815 83.4276 -132.696 83.6223 -132.559 83.8035L-162.602 112.341ZM-126.749 83.4783C-126.35 82.8103 -126.185 82.0282 -126.281 81.2557L-49.3431 64.7371L-43.6469 137.532C-44.4792 137.668 -45.2325 138.105 -45.7638 138.759L-126.749 83.4783ZM51.5826 208.804C52.2178 208.497 52.7458 208.006 53.0977 207.395C53.4497 206.784 53.6095 206.081 53.5561 205.378L59.7111 204.335L35.3722 254.425L49.3299 209.064C50.089 209.229 50.8814 209.138 51.5826 208.804ZM37.16 259.481C37.2709 259.148 37.3302 258.8 37.3359 258.449L106.224 253.519L106.657 286.746C106.093 286.806 105.552 287.002 105.08 287.317C104.608 287.631 104.219 288.056 103.947 288.553L37.16 259.481ZM110.413 291.215C110.655 290.383 110.58 289.491 110.202 288.711C110.13 288.566 110.05 288.427 109.96 288.292L154.757 251.99C155.304 252.559 156.025 252.93 156.805 253.045L155.036 305.402C154.536 305.411 154.043 305.528 153.593 305.745C152.893 306.088 152.326 306.65 151.977 307.346L110.413 291.215ZM157.692 311.351C158.064 310.96 158.343 310.489 158.506 309.975L225.861 320.437L215.042 371.235C214.391 371.168 213.734 371.284 213.146 371.57C212.923 371.678 212.712 371.809 212.515 371.961L157.692 311.351ZM214.518 378.255C215.105 378.28 215.689 378.159 216.218 377.903C216.758 377.647 217.222 377.253 217.562 376.761L237.245 387.585L208.728 434.31C208.42 434.124 208.085 433.988 207.735 433.908L214.518 378.255ZM254.527 494.293C254.477 494.098 254.407 493.908 254.317 493.728C254.114 493.305 253.826 492.928 253.473 492.619L271.428 465.107L302.467 478.037C302.366 478.531 302.373 479.042 302.488 479.534L254.527 494.293Z" fill="#79B6FF"/>
</svg>
