<svg width="307" height="407" viewBox="0 0 307 407" fill="none" xmlns="http://www.w3.org/2000/svg">
<path d="M696.851 169.989C696.142 169.83 695.4 169.891 694.723 170.163C694.046 170.435 693.468 170.906 693.064 171.513L620.685 133.662C620.922 133.202 621.056 132.696 621.078 132.181C621.1 131.665 621.01 131.152 620.813 130.677C620.617 130.201 620.318 129.774 619.939 129.426C619.56 129.078 619.109 128.817 618.617 128.661C618.125 128.504 617.604 128.456 617.09 128.52C616.576 128.584 616.081 128.759 615.64 129.031C615.198 129.304 614.821 129.668 614.533 130.099C614.246 130.531 614.055 131.018 613.974 131.528C613.908 131.827 613.879 132.132 613.886 132.437L568.622 138.008C568.519 137.518 568.311 137.057 568.014 136.656C567.717 136.254 567.337 135.92 566.899 135.677C566.462 135.434 565.976 135.287 565.476 135.246C564.975 135.205 564.47 135.271 563.996 135.44C563.521 135.608 563.087 135.875 562.722 136.223C562.357 136.57 562.071 136.991 561.881 137.456C561.691 137.922 561.603 138.421 561.622 138.922C561.64 139.422 561.766 139.912 561.99 140.359L519.417 166.894C518.904 166.215 518.159 165.748 517.321 165.579C516.483 165.41 515.61 165.552 514.864 165.977L447.899 69.3662C448.349 69.0069 448.706 68.5457 448.941 68.0215C449.175 67.4972 449.28 66.9254 449.246 66.3543C449.212 65.7832 449.041 65.2297 448.746 64.7407C448.452 64.2517 448.043 63.8414 447.554 63.5446C447.066 63.2479 446.511 63.0734 445.939 63.0359C445.366 62.9984 444.792 63.099 444.264 63.3292C443.737 63.5594 443.271 63.9125 442.908 64.3585C442.545 64.8045 442.294 65.3303 442.177 65.8914C442.046 66.4237 442.047 66.9783 442.177 67.5084L306.522 113.387C306.555 112.532 306.278 111.695 305.741 111.031C305.205 110.367 304.445 109.919 303.601 109.77C302.756 109.62 301.884 109.779 301.143 110.217C300.401 110.656 299.841 111.344 299.564 112.156C299.526 112.327 299.5 112.501 299.486 112.676L246.932 113.37C246.872 112.824 246.685 112.301 246.388 111.841C246.09 111.381 245.689 110.997 245.216 110.718C244.743 110.439 244.212 110.274 243.662 110.234C243.113 110.195 242.561 110.283 242.049 110.491L210.998 52.1529L211.896 52.1228L210.692 51.597L210.473 51.2645L210.322 51.4659L107.811 5.65246C107.854 5.54358 107.889 5.43204 107.917 5.31856C108.109 4.54438 108.035 3.73067 107.708 3.00713C107.381 2.28359 106.819 1.69186 106.113 1.32631C105.406 0.960748 104.596 0.842376 103.81 0.990086C103.024 1.1378 102.308 1.54306 101.777 2.14128C101.246 2.7395 100.929 3.49625 100.878 4.29088C100.827 5.08553 101.044 5.87233 101.494 6.52585C101.945 7.17935 102.603 7.66199 103.365 7.89678C104.126 8.13159 104.946 8.10505 105.694 7.82142L127.523 53.2005C127.498 53.2934 127.464 53.3843 127.445 53.4732C127.333 53.9341 127.315 54.4121 127.392 54.8786L44.2121 77.1749C43.9743 76.5032 43.539 75.9198 42.9626 75.5003C42.3862 75.0807 41.6953 74.8444 40.9795 74.822C40.2636 74.7996 39.5558 74.992 38.9479 75.3744C38.3399 75.7568 37.8599 76.3115 37.5699 76.9666C37.2799 77.6217 37.1933 78.3471 37.3214 79.0485C37.4496 79.75 37.7865 80.3953 38.2885 80.9008C38.7905 81.4062 39.4345 81.7485 40.1369 81.8834C40.8394 82.0182 41.5679 81.9393 42.228 81.6568L69.8448 134.077C69.4032 134.365 69.0308 134.748 68.7548 135.196C68.4788 135.645 68.3061 136.148 68.2493 136.67C68.1926 137.192 68.2531 137.718 68.4265 138.212C68.5999 138.706 68.8818 139.154 69.2518 139.524L41.925 172.105C41.3764 171.719 40.7283 171.496 40.0555 171.463C39.3827 171.429 38.7125 171.585 38.1222 171.914C37.5319 172.243 37.0456 172.73 36.7194 173.321C36.3931 173.911 36.2401 174.58 36.2781 175.25C36.3161 175.92 36.5435 176.565 36.934 177.109C37.3246 177.654 37.8625 178.076 38.4856 178.327C39.1088 178.578 39.7918 178.648 40.456 178.528C41.1201 178.409 41.7383 178.105 42.2394 177.652L76.2078 209.843C75.869 210.271 75.6333 210.77 75.5192 211.302C75.405 211.834 75.4155 212.384 75.5496 212.91C75.6838 213.435 75.9382 213.921 76.2928 214.331C76.6474 214.741 77.0928 215.063 77.5942 215.271L60.9294 260.442C60.4219 260.297 59.8874 260.266 59.3646 260.352C58.8419 260.437 58.3437 260.637 57.9062 260.937C57.4687 261.237 57.1028 261.63 56.8347 262.087C56.5667 262.544 56.4033 263.053 56.3562 263.579C56.3092 264.104 56.3797 264.633 56.5627 265.126C56.7458 265.62 57.0367 266.066 57.4146 266.432C57.7924 266.798 58.2478 267.076 58.7478 267.244C59.2479 267.413 59.7801 267.469 60.3061 267.407L66.2534 302.868C65.6278 303.032 65.0579 303.363 64.6058 303.826C64.1538 304.289 63.837 304.866 63.69 305.493C63.6075 305.822 63.5762 306.162 63.5972 306.499L9.2812 314.84C9.14209 314.218 8.83734 313.645 8.39883 313.182C7.96033 312.72 7.40419 312.384 6.78865 312.211C6.17311 312.037 5.52081 312.032 4.90002 312.196C4.27923 312.36 3.71279 312.687 3.26 313.143C2.80721 313.599 2.48471 314.166 2.32628 314.786C2.16785 315.407 2.17931 316.057 2.35945 316.668C2.5396 317.28 2.88178 317.831 3.35023 318.263C3.81867 318.696 4.39614 318.994 5.02215 319.127C5.15992 319.159 5.29938 319.183 5.43993 319.2L3.52977 399.871C2.86601 399.914 2.2261 400.141 1.68193 400.526C1.13775 400.911 0.710897 401.439 0.449271 402.05C0.187662 402.661 0.101661 403.332 0.20093 403.986C0.300216 404.641 0.580844 405.253 1.01127 405.755C1.44172 406.256 2.00494 406.628 2.63766 406.826C3.27036 407.025 3.94752 407.044 4.59302 406.88C5.23854 406.716 5.82686 406.376 6.29189 405.899C6.75691 405.422 7.08022 404.826 7.2255 404.178C7.35261 403.655 7.35574 403.111 7.23461 402.589L120.059 365.593C120.382 366.24 120.897 366.771 121.535 367.113C122.173 367.456 122.903 367.593 123.626 367.507C124.348 367.421 125.028 367.115 125.574 366.631C126.119 366.148 126.503 365.509 126.673 364.804C126.884 363.893 126.729 362.938 126.24 362.146C125.752 361.353 124.97 360.786 124.061 360.565C123.875 360.527 123.685 360.5 123.495 360.487L120.43 319.093C121.132 318.988 121.788 318.674 122.312 318.194C122.837 317.714 123.205 317.088 123.369 316.399C123.484 315.944 123.503 315.471 123.424 315.01L218.036 286.741C218.277 287.366 218.69 287.909 219.228 288.308C219.766 288.708 220.407 288.946 221.078 288.997C221.749 289.048 222.422 288.909 223.02 288.596C223.618 288.283 224.117 287.809 224.458 287.228C224.8 286.647 224.97 285.983 224.951 285.312C224.931 284.642 224.722 283.992 224.347 283.437C223.972 282.883 223.447 282.446 222.832 282.178C222.217 281.909 221.537 281.82 220.871 281.92L210.728 237.705C211.301 237.51 211.816 237.175 212.225 236.73C212.634 236.284 212.924 235.744 213.069 235.159L213.016 235.483L327.371 253.295C327.324 253.925 327.448 254.555 327.73 255.118C328.012 255.681 328.441 256.157 328.972 256.496C329.504 256.835 330.118 257.025 330.751 257.046C331.384 257.066 332.012 256.917 332.569 256.613L359.333 296.673C358.808 297.086 358.409 297.636 358.179 298.261C357.95 298.886 357.899 299.561 358.034 300.211C358.169 300.86 358.483 301.457 358.941 301.935C359.399 302.413 359.984 302.754 360.628 302.917C361.272 303.081 361.951 303.061 362.588 302.861C363.225 302.66 363.794 302.287 364.231 301.783C364.669 301.279 364.958 300.665 365.065 300.009C365.172 299.352 365.093 298.681 364.837 298.07L429.952 264.365C430.467 265.037 431.207 265.502 432.039 265.676C432.871 265.85 433.74 265.722 434.49 265.315C435.24 264.908 435.822 264.249 436.131 263.456C436.44 262.663 436.456 261.789 436.176 260.99L475.22 238.755C475.607 239.314 476.149 239.748 476.781 240.003C477.413 240.259 478.107 240.326 478.78 240.196C479.452 240.066 480.074 239.744 480.569 239.27C481.064 238.796 481.412 238.19 481.57 237.526C481.616 237.328 481.644 237.127 481.655 236.925L563.736 232.394C563.834 232.996 564.086 233.561 564.469 234.034C564.852 234.507 565.352 234.872 565.921 235.094C566.49 235.315 567.108 235.385 567.714 235.297C568.321 235.209 568.896 234.966 569.382 234.592L608.318 274.95C607.932 275.351 607.643 275.835 607.476 276.364C607.309 276.893 607.267 277.453 607.354 277.998C607.442 278.544 607.655 279.062 607.979 279.509C608.302 279.957 608.726 280.322 609.218 280.576C609.709 280.831 610.254 280.967 610.809 280.974C611.364 280.982 611.915 280.86 612.417 280.62C612.918 280.379 613.358 280.025 613.7 279.586C614.043 279.148 614.279 278.637 614.389 278.094L657.754 279.324L680.669 279.953C680.744 280.547 680.969 281.111 681.321 281.594C681.674 282.077 682.144 282.462 682.688 282.714C683.231 282.966 683.831 283.076 684.431 283.036C685.032 282.995 685.613 282.804 686.122 282.481C686.631 282.158 687.05 281.712 687.342 281.186C687.634 280.66 687.789 280.07 687.792 279.471C687.795 278.871 687.646 278.282 687.36 277.757C687.073 277.233 686.658 276.79 686.152 276.469L705.295 229.743L705.441 229.782C706.3 229.859 707.159 229.623 707.861 229.118C708.564 228.614 709.061 227.874 709.262 227.037C709.463 226.2 709.355 225.32 708.956 224.561C708.557 223.802 707.896 223.214 707.093 222.906C706.656 222.805 706.202 222.788 705.757 222.858L696.994 176.892C697.724 176.65 698.359 176.18 698.804 175.552C699.249 174.924 699.48 174.172 699.464 173.406C699.447 172.64 699.183 171.902 698.711 171.302C698.239 170.701 697.584 170.269 696.844 170.07L696.851 169.989ZM682.971 276.019C682.42 276.221 681.927 276.556 681.536 276.994C681.146 277.433 680.871 277.961 680.736 278.53C680.678 278.754 680.645 278.984 680.638 279.216L654.662 278.5L614.525 277.4C614.54 277.059 614.504 276.719 614.417 276.39L673.1 244.845L682.971 276.019ZM430.412 260.019L404.273 239.39L431.565 200.695C431.857 200.863 432.174 200.988 432.503 201.064C432.663 201.101 432.825 201.125 432.989 201.136L432.658 258.932C431.803 259.011 431.005 259.398 430.412 260.019ZM363.291 296.348C362.995 296.182 362.677 296.059 362.346 295.982C362.153 295.94 361.957 295.913 361.76 295.9L359.586 207.713C360.398 207.608 361.151 207.229 361.721 206.64L403.38 239.519L363.291 296.348ZM76.1944 131.452L99.3975 165.95L74.4475 139.37C75.0711 138.656 75.3868 137.726 75.3254 136.785C75.2641 135.844 74.8307 134.969 74.1202 134.351L76.1944 131.452ZM44.3614 79.2131C44.473 78.7543 44.4923 78.2786 44.4183 77.8137L127.594 55.5115C127.802 56.0773 128.153 56.5789 128.614 56.9681L76.1936 130.278L43.1256 81.1167C43.7367 80.6345 44.1714 79.9649 44.3614 79.2131ZM443.605 69.5726C443.939 69.8089 444.313 69.9836 444.709 70.0883L434.14 127.511C433.294 127.448 432.452 127.687 431.762 128.185C431.072 128.683 430.581 129.407 430.376 130.229L395.332 125.484L443.605 69.5726ZM703.431 224.228L703.305 224.414L660.791 196.78C660.929 196.516 661.033 196.235 661.1 195.946C661.28 195.19 661.206 194.399 660.887 193.694L669.894 188.613L703.431 224.228ZM585.932 163.023L571.953 156.84L572.053 156.51C572.212 155.834 572.171 155.128 571.933 154.478L582.24 149.545L653.226 192.79L585.932 163.023ZM571.683 157.435L620.565 179.07L654.326 194.015C654.287 194.122 654.256 194.231 654.231 194.341C654.084 194.945 654.099 195.575 654.275 196.168L592.032 221.46L570.073 158.912C570.744 158.589 571.3 158.065 571.662 157.415L571.683 157.435ZM660.585 193.118C660.102 192.414 659.374 191.912 658.541 191.708C657.707 191.505 656.826 191.612 656.062 192.012L619.626 135.143L669.449 188.106L660.585 193.118ZM616.613 135.783C617.436 135.975 618.302 135.866 619.056 135.476L655.492 192.345C655.242 192.536 655.02 192.759 654.831 193.01L582.929 149.184L614.38 134.138C614.618 134.545 614.936 134.899 615.317 135.178C615.697 135.457 616.131 135.656 616.592 135.763L616.613 135.783ZM614.115 133.58L582.284 148.818L568.357 140.328C568.478 140.089 568.571 139.836 568.633 139.575C568.704 139.277 568.734 138.972 568.721 138.666L613.985 133.096C614.011 133.253 614.048 133.408 614.094 133.56L614.115 133.58ZM566.209 142.151C566.93 141.928 567.563 141.484 568.018 140.883L581.547 149.133L571.62 153.884C571.38 153.477 571.059 153.123 570.677 152.843C570.295 152.564 569.86 152.365 569.398 152.258C569.005 152.17 568.599 152.149 568.199 152.196L566.209 142.151ZM565.759 157.838L532.268 187.942L519.087 171.58C519.496 171.185 519.805 170.698 519.986 170.161C520.167 169.624 520.216 169.052 520.128 168.494L565.268 156.91C565.378 157.232 565.535 157.536 565.734 157.812L565.759 157.838ZM479.824 233.611C479.563 233.472 479.285 233.369 478.996 233.305C478.436 233.173 477.852 233.181 477.294 233.328L458.733 189.286L513.389 170.515C513.654 171.104 514.076 171.609 514.609 171.976L479.824 233.611ZM207.177 231.727L180.333 205.57C180.888 204.936 181.199 204.128 181.21 203.29L194.574 200.446L207.718 231.363C207.526 231.466 207.345 231.588 207.177 231.727ZM70.6787 306.576C70.7282 306.03 70.6505 305.48 70.4517 304.97C70.2528 304.46 69.9383 304.004 69.5325 303.637L83.6936 284.733L116.985 313.615C116.754 313.958 116.586 314.34 116.491 314.741L70.6787 306.576ZM117.363 313.12L84.0574 284.229L128.028 225.474C128.347 225.667 128.695 225.808 129.059 225.893L129.184 225.913L119.9 312.045C119.428 312.049 118.961 312.146 118.526 312.33C118.09 312.515 117.695 312.783 117.363 313.12ZM432.978 134.44C433.135 134.478 433.295 134.503 433.457 134.516L433.031 194.111C432.54 194.16 432.063 194.311 431.632 194.553C431.2 194.795 430.822 195.123 430.523 195.516L392.873 172.646L431.56 133.722C431.971 134.066 432.456 134.312 432.978 134.44ZM430.167 196.083C430.044 196.318 429.952 196.567 429.892 196.825C429.828 197.093 429.795 197.366 429.793 197.64L362.693 204.075C362.688 203.757 362.636 203.441 362.539 203.138L392.376 173.117L430.167 196.083ZM362.277 202.493C362.064 202.091 361.77 201.737 361.413 201.454L366.604 164.513L367.108 160.938C367.673 160.958 368.236 160.845 368.75 160.606C369.265 160.368 369.717 160.012 370.068 159.567L391.814 172.772L362.277 202.493ZM366.45 160.852L365.981 164.455L360.792 201.072C360.532 200.933 360.256 200.829 359.969 200.762C359.508 200.658 359.031 200.646 358.564 200.726L342.323 174.896L364.559 159.714C365.046 160.294 365.71 160.699 366.452 160.868L366.45 160.852ZM431.085 133.261L392.285 172.301L370.42 159.02C370.56 158.76 370.667 158.484 370.737 158.198C370.874 157.624 370.867 157.027 370.716 156.459L430.653 132.592C430.769 132.837 430.914 133.067 431.087 133.277L431.085 133.261ZM305.7 115.214L364.172 155.764C364.018 156.036 363.905 156.329 363.834 156.633C363.622 157.507 363.754 158.425 364.203 159.2L341.997 174.362L305.115 115.761C305.331 115.603 305.527 115.419 305.7 115.214ZM341.462 174.723L315.629 192.368C315.155 191.856 314.536 191.499 313.854 191.341C313.583 191.279 313.305 191.251 313.026 191.257L307.401 145.794L303.761 116.389C304.05 116.327 304.33 116.226 304.593 116.088L341.462 174.723ZM133.104 57.0072L155.428 80.3956L169.238 94.845C168.857 95.2801 168.587 95.7998 168.45 96.3598C168.323 96.9008 168.325 97.4628 168.454 98.0011C168.584 98.5394 168.838 99.0391 169.196 99.4606L156.949 112.056L132.674 57.3069C132.825 57.2182 132.969 57.1179 133.104 57.0072ZM221.629 191.317L178.036 155.813C178.366 155.336 178.573 154.786 178.637 154.212C178.701 153.637 178.62 153.057 178.402 152.524L195.871 142.201L222.189 190.863C221.987 190.994 221.799 191.146 221.629 191.317ZM178.106 151.945C177.611 151.172 176.834 150.622 175.937 150.411C175.708 150.359 175.475 150.328 175.24 150.317L172.408 100.648C172.701 100.604 172.987 100.522 173.259 100.402L195.557 141.633L178.106 151.945ZM169.68 99.9082C170.09 100.235 170.568 100.466 171.08 100.587C171.31 100.642 171.546 100.672 171.783 100.677L172.783 118.422L174.581 150.359C174.385 150.386 174.193 150.436 174.008 150.507L157.239 112.691L169.68 99.9082ZM173.417 150.768C172.987 151.007 172.612 151.332 172.315 151.723C172.018 152.114 171.806 152.561 171.692 153.037C171.601 153.429 171.577 153.834 171.621 154.233L105.33 168.035C105.19 167.575 104.956 167.149 104.643 166.785L156.77 113.204L173.417 150.768ZM105.376 169.878C105.469 169.486 105.493 169.081 105.446 168.682L171.738 154.879C171.932 155.566 172.334 156.175 172.887 156.625L150.463 190.641L105.259 170.235C105.299 170.124 105.33 170.01 105.352 169.893L105.376 169.878ZM173.467 156.958C173.731 157.094 174.011 157.195 174.301 157.26C174.391 157.281 174.483 157.298 174.574 157.31L177.324 199.763C176.766 199.829 176.23 200.024 175.76 200.334C175.29 200.643 174.898 201.059 174.618 201.546L151.089 190.927L173.467 156.958ZM178.519 199.818C178.329 199.79 178.137 199.777 177.945 199.78L175.199 157.384C175.528 157.375 175.855 157.317 176.168 157.213L194.279 199.815L181.119 202.618C180.992 201.951 180.675 201.335 180.207 200.844C179.739 200.353 179.139 200.007 178.477 199.846L178.519 199.818ZM176.823 156.918C177.085 156.792 177.329 156.632 177.548 156.441L221.263 191.83C221.029 192.19 220.861 192.589 220.768 193.007C220.678 193.404 220.656 193.812 220.705 194.215L194.937 199.654L176.823 156.918ZM309.579 193.987L309.552 194.141L261.068 193.729L227.656 193.468C227.599 192.726 227.308 192.024 226.824 191.462L270.986 146.2L310.649 192.158C310.111 192.644 309.737 193.283 309.579 193.987ZM224.65 190.298C224.011 190.212 223.36 190.299 222.765 190.552L196.45 141.854L240.541 115.8C240.959 116.4 241.557 116.852 242.25 117.092L224.65 190.298ZM240.201 115.258L196.128 141.3L173.845 100.093C174.494 99.6594 174.982 99.0238 175.231 98.2865L239.897 113.271C239.798 113.948 239.903 114.637 240.197 115.252L240.201 115.258ZM172.717 93.7279C172.201 93.6119 171.665 93.6118 171.148 93.7275C170.63 93.8432 170.144 94.0719 169.724 94.397L159.664 83.8541L133.592 56.5494C133.687 56.4364 133.775 56.3184 133.857 56.1959L185.831 83.6603L175.452 97.3065C175.485 96.4822 175.23 95.6744 174.73 95.0207C174.231 94.3671 173.518 93.9081 172.713 93.722L172.717 93.7279ZM130.403 57.7558C130.959 57.8266 131.525 57.7659 132.055 57.5787L156.433 112.549L104.126 166.325C103.815 166.069 103.46 165.87 103.078 165.738L130.403 57.7558ZM104.978 170.838L150.087 191.204L131.569 219.302C131.305 219.168 131.025 219.067 130.735 219.001C130.014 218.837 129.258 218.9 128.571 219.183L103.858 172.044C104.319 171.733 104.703 171.32 104.978 170.838ZM132.089 219.675L150.686 191.474L174.352 202.146C174.308 202.26 174.273 202.377 174.248 202.496C174.101 203.094 174.116 203.718 174.29 204.306L133.046 220.841C132.815 220.388 132.489 219.99 132.089 219.675ZM208.259 231.049L195.178 200.295L220.731 194.854C220.872 195.328 221.111 195.766 221.434 196.14C221.758 196.514 222.157 196.815 222.607 197.023L210.184 230.87C209.549 230.748 208.89 230.805 208.283 231.033L208.259 231.049ZM210.806 231.006L223.226 197.194L223.305 197.21C224.217 197.413 225.176 197.251 225.975 196.758C226.774 196.265 227.35 195.481 227.578 194.574C227.609 194.426 227.63 194.276 227.652 194.126L302.388 194.722L309.48 194.775C309.475 195.015 309.497 195.255 309.547 195.489L212.677 232.583C212.268 231.85 211.612 231.288 210.824 230.994L210.806 231.006ZM316.003 192.897L341.792 175.289L357.907 200.928C357.393 201.125 356.931 201.438 356.558 201.843C356.185 202.248 355.912 202.734 355.761 203.261L316.545 194.906C316.583 194.193 316.4 193.487 316.021 192.885L316.003 192.897ZM434.147 194.201C433.989 194.166 433.829 194.141 433.668 194.126L434.093 134.531C434.35 134.505 434.603 134.453 434.848 134.374L457.822 188.882L436.552 196.184C436.337 195.69 436.009 195.252 435.595 194.906C435.181 194.56 434.692 194.315 434.165 194.19L434.147 194.201ZM513.139 168.245C513.013 168.783 513.014 169.342 513.142 169.878L458.461 188.665L435.472 134.108C436.05 133.798 436.532 133.335 436.867 132.772L513.284 167.878L513.139 168.245ZM430.253 130.864C430.233 131.254 430.279 131.644 430.386 132.018L370.498 155.853C370.337 155.52 370.122 155.216 369.861 154.953L394.835 126.033L430.253 130.864ZM369.359 154.569C368.63 154.049 367.727 153.829 366.835 153.953C365.943 154.077 365.13 154.535 364.561 155.235L306.097 114.697C306.21 114.502 306.305 114.297 306.381 114.085L394.048 125.972L369.359 154.569ZM302.17 116.424C302.472 116.495 302.782 116.528 303.093 116.523L312.352 191.368C311.934 191.448 311.532 191.603 311.168 191.825L271.418 145.813L300.73 115.764C301.157 116.081 301.653 116.293 302.178 116.385L302.17 116.424ZM270.564 145.754L226.348 191.052C226.024 190.788 225.654 190.584 225.257 190.451L242.897 117.227C243.794 117.354 244.707 117.128 245.444 116.597L270.564 145.754ZM240.041 112.656L175.882 97.7895L186.377 84.0071L240.144 112.435C240.111 112.496 240.081 112.559 240.053 112.623L240.041 112.656ZM134.134 55.6647C134.209 55.4825 134.273 55.2957 134.324 55.1056C134.368 54.9146 134.395 54.7201 134.404 54.5245L209.771 52.2201L186.196 83.1726L134.134 55.6647ZM129.092 57.3682C129.261 57.4671 129.438 57.5495 129.623 57.6142L129.722 57.8298L102.457 165.603C101.691 165.494 100.908 165.636 100.226 166.008L76.5828 130.856L129.092 57.3682ZM42.4487 172.509L69.7794 139.934C70.1408 140.185 70.549 140.361 70.9803 140.454C71.2565 140.515 71.5389 140.546 71.8224 140.546L74.8011 171.357L43.4013 174.333C43.2719 173.643 42.9405 173.009 42.4487 172.509ZM72.4518 140.472C72.9979 140.366 73.5119 140.132 73.9517 139.791L99.2727 166.764C98.8769 167.2 98.5988 167.729 98.4649 168.301C98.4045 168.565 98.3721 168.834 98.368 169.105L75.4542 171.293L72.4518 140.472ZM98.4273 169.755C98.5097 170.226 98.6875 170.673 98.9497 171.071C99.2118 171.469 99.553 171.809 99.9523 172.071L80.4755 208.828C80.2557 208.729 80.0266 208.652 79.7915 208.597C79.5514 208.54 79.3057 208.508 79.0585 208.501L75.5038 171.916L98.4273 169.755ZM81.0718 209.108L97.9055 177.318L82.5247 212.134C82.5524 211.548 82.4342 210.964 82.1808 210.436C81.9273 209.908 81.5464 209.452 81.0718 209.108ZM100.804 172.412L101.101 172.498C101.806 172.675 102.551 172.633 103.236 172.377L127.949 219.516C127.228 219.983 126.7 220.695 126.464 221.518C126.227 222.341 126.298 223.219 126.664 223.989L62.9264 261.715C62.6059 261.306 62.1988 260.972 61.7338 260.738L100.804 172.412ZM127.024 224.484C127.164 224.679 127.325 224.859 127.505 225.018L83.576 283.746L63.0196 265.91C63.4043 265.376 63.6351 264.749 63.6868 264.096C63.7385 263.444 63.6089 262.791 63.3124 262.21L127.024 224.484ZM62.5944 266.411L83.1798 284.331L69.0264 303.247C68.7081 303.056 68.3614 302.917 67.999 302.834C67.6434 302.754 67.2776 302.725 66.913 302.749L60.9754 267.316C61.5739 267.168 62.1253 266.869 62.5761 266.448L62.5944 266.411ZM66.3496 309.675C67.2371 309.881 68.1732 309.737 68.9615 309.272C69.7497 308.806 70.329 308.056 70.5778 307.179L116.159 315.385L10.1271 315.355L63.7122 307.13C63.8693 307.759 64.1963 308.333 64.658 308.788C65.1196 309.243 65.6983 309.562 66.3314 309.712L66.3496 309.675ZM9.29531 316.491C9.33277 316.335 9.35749 316.176 9.36923 316.016L116.379 316.032C116.443 316.554 116.623 317.055 116.907 317.497L79.5682 345.709L9.22567 316.724C9.25368 316.648 9.27694 316.57 9.29531 316.491ZM120.73 312.119L120.546 312.087L129.818 225.963C130.342 225.963 130.86 225.849 131.336 225.628C131.812 225.407 132.234 225.085 132.573 224.685L157.452 241.811L121.215 312.268C121.056 312.209 120.894 312.16 120.73 312.119ZM132.951 224.164C133.11 223.87 133.227 223.555 133.297 223.229C133.44 222.631 133.425 222.007 133.255 221.418L174.471 204.894C174.756 205.456 175.19 205.929 175.725 206.264L157.739 241.231L132.951 224.164ZM176.309 206.577C176.469 206.643 176.634 206.697 176.802 206.738C177.53 206.905 178.295 206.839 178.987 206.55L219.353 282.418C219.065 282.608 218.806 282.838 218.585 283.102L158.287 241.619L176.309 206.577ZM219.915 282.124L179.605 206.211L179.893 206.022L206.776 232.213C206.484 232.597 206.277 233.038 206.169 233.507C205.959 234.418 206.116 235.372 206.605 236.164C207.095 236.956 207.878 237.522 208.786 237.741C209.208 237.84 209.645 237.859 210.075 237.795L220.217 282.01L219.915 282.124ZM212.929 233.2L309.725 196.138C309.938 196.656 310.271 197.117 310.697 197.481C311.124 197.845 311.631 198.103 312.178 198.233C312.683 198.346 313.206 198.349 313.713 198.244L329.519 250.288C329.008 250.497 328.553 250.823 328.19 251.238C327.827 251.653 327.566 252.147 327.428 252.679L213.062 234.797C213.148 234.258 213.108 233.707 212.947 233.188L212.929 233.2ZM331.695 250.098C331.193 249.98 330.671 249.975 330.166 250.084L314.678 199.2L335.665 244.487L332.317 250.327C332.118 250.23 331.909 250.153 331.695 250.098ZM314.792 197.823C315.209 197.581 315.572 197.257 315.86 196.872C316.148 196.486 316.354 196.046 316.465 195.58L355.638 203.921C355.574 204.543 355.678 205.169 355.938 205.736C356.198 206.302 356.604 206.788 357.117 207.144L336.08 243.814L314.792 197.823ZM357.695 207.436C357.903 207.526 358.12 207.597 358.341 207.648C358.533 207.696 358.73 207.723 358.928 207.73L361.105 295.923C360.851 295.954 360.601 296.01 360.358 296.092L336.448 244.49L357.695 207.436ZM362.128 206.124C362.352 205.784 362.517 205.407 362.615 205.012L362.665 204.749L429.852 198.29C429.999 199.084 430.417 199.801 431.035 200.32L403.783 238.972L362.128 206.124ZM436.203 199.682C436.477 199.31 436.678 198.889 436.794 198.442C436.922 197.902 436.92 197.34 436.788 196.803L458.102 189.489L476.671 233.542C476.358 233.689 476.068 233.881 475.809 234.11L436.203 199.682ZM480.348 233.938L515.158 172.261C515.356 172.35 515.563 172.419 515.775 172.468C516.246 172.578 516.735 172.59 517.212 172.503C517.69 172.416 518.145 172.231 518.548 171.961L531.752 188.358L480.694 234.255C480.587 234.141 480.471 234.035 480.348 233.938ZM532.652 188.421L566.173 158.297C566.619 158.704 567.162 158.991 567.752 159.13C567.897 159.163 568.044 159.186 568.192 159.198L567.213 214.381L566.935 228.295C566.323 228.351 565.735 228.563 565.227 228.909L532.652 188.421ZM568.078 228.351C567.927 228.317 567.774 228.293 567.619 228.279L568.844 159.211C569.045 159.195 569.243 159.16 569.438 159.109L591.402 221.688L570.413 230.227C570.185 229.763 569.859 229.354 569.455 229.03C569.052 228.706 568.582 228.474 568.078 228.351ZM592.251 222.039L654.552 196.718C654.822 197.235 655.216 197.677 655.7 198.005L612.934 274.268C612.602 274.052 612.232 273.897 611.844 273.812C611.388 273.703 610.913 273.688 610.45 273.768L592.251 222.039ZM614.195 275.753C614.008 275.354 613.748 274.995 613.428 274.692L656.238 198.34C656.433 198.427 656.636 198.496 656.845 198.544C657.363 198.665 657.904 198.665 658.424 198.543L672.898 244.186L614.195 275.753ZM659.048 198.344C659.592 198.112 660.07 197.75 660.441 197.291L703.008 224.967C702.945 225.124 702.893 225.286 702.854 225.451C702.653 226.286 702.764 227.164 703.166 227.919L673.49 243.873L659.048 198.344ZM703.873 223.699L670.5 188.23L693.132 175.435C693.628 176.147 694.369 176.651 695.217 176.854C695.599 176.944 695.994 176.971 696.386 176.935L705.159 222.929C704.67 223.092 704.223 223.361 703.849 223.715L703.873 223.699ZM692.781 172.074C692.707 172.249 692.645 172.429 692.595 172.613C692.419 173.369 692.493 174.159 692.808 174.865L670.041 187.741L620.081 134.648C620.195 134.514 620.3 134.374 620.396 134.227L692.781 172.074ZM562.372 140.874C562.863 141.529 563.573 141.987 564.375 142.168C564.766 142.254 565.169 142.276 565.568 142.233L567.595 152.296C566.775 152.544 566.072 153.08 565.615 153.803C565.158 154.527 564.979 155.389 565.112 156.23L519.972 167.814C519.925 167.677 519.869 167.543 519.803 167.414L562.372 140.874ZM514.335 166.334C514.02 166.594 513.753 166.908 513.547 167.261L437.132 132.172C437.177 132.049 437.216 131.925 437.247 131.798C437.452 130.91 437.309 129.979 436.847 129.198C436.385 128.416 435.639 127.843 434.762 127.596L445.331 70.1724C446.039 70.2357 446.752 70.0787 447.37 69.7231L514.335 166.334ZM442.427 68.1355C442.591 68.5149 442.819 68.8624 443.103 69.1626L394.552 125.394L307.869 113.607L442.427 68.1355ZM299.484 113.324C299.557 114.036 299.844 114.707 300.307 115.251L271.043 145.269L245.948 116.189C246.525 115.606 246.875 114.838 246.934 114.024L299.484 113.324ZM241.469 110.797C241.055 111.064 240.701 111.414 240.428 111.823L186.765 83.4622L210.394 52.4228L241.469 110.797ZM106.268 7.54561C106.789 7.22919 107.221 6.78631 107.524 6.25885L209.006 51.5665L134.404 53.886C134.323 53.1581 134.016 52.4753 133.526 51.9328C133.035 51.3903 132.386 51.0153 131.668 50.86C130.951 50.7048 130.201 50.777 129.523 51.0666C128.845 51.3562 128.273 51.8488 127.887 52.4757L106.268 7.54561ZM44.0594 83.6683L75.7974 130.863L73.5585 133.98C73.2605 133.803 72.9356 133.675 72.5962 133.601C71.8733 133.432 71.1135 133.497 70.4267 133.787L44.0594 83.6683ZM42.7 177.179C43.0214 176.774 43.2519 176.306 43.3754 175.806C43.4345 175.539 43.4657 175.268 43.4684 174.996L74.8664 172.003L78.4216 208.538C77.7712 208.653 77.1631 208.941 76.6624 209.373L42.7 177.179ZM78.2231 215.47C78.8034 215.59 79.4057 215.563 79.9755 215.393C80.5453 215.223 81.0647 214.914 81.4869 214.495L63.9397 254.195L78.2231 215.47ZM6.10429 319.205C6.7023 319.154 7.27897 318.954 7.78118 318.623C8.2834 318.292 8.695 317.842 8.97814 317.312L78.9593 346.127L6.37334 400.969C5.89363 400.448 5.26797 400.084 4.57646 399.922C4.43992 399.892 4.30176 399.869 4.16261 399.854L6.10429 319.205ZM7.02222 401.98C6.95393 401.822 6.87589 401.669 6.78856 401.521L79.6762 346.447L119.818 362.986L119.763 363.175C119.62 363.763 119.633 364.376 119.801 364.954L7.02222 401.98ZM122.813 360.468C122.235 360.541 121.682 360.753 121.203 361.087C120.724 361.42 120.333 361.864 120.064 362.381L80.2992 346.011L117.334 318.016C117.814 318.505 118.429 318.84 119.102 318.98C119.324 319.033 119.551 319.063 119.78 319.07L122.813 360.468ZM123.23 314.337C122.965 313.605 122.462 312.984 121.801 312.572L158 242.2L218.215 283.636C217.79 284.37 217.649 285.232 217.819 286.058L123.23 314.337ZM334.312 254.333C334.478 253.644 334.433 252.924 334.183 252.264C333.932 251.605 333.488 251.038 332.907 250.636L336.019 245.181L359.441 295.717L333.078 256.252C333.691 255.765 334.125 255.09 334.312 254.333ZM364.511 297.51C364.323 297.214 364.09 296.948 363.821 296.722L403.897 239.927L430.001 260.529C429.688 261.006 429.495 261.552 429.439 262.118C429.383 262.684 429.465 263.254 429.678 263.78L364.511 297.51ZM435.868 260.418C435.376 259.705 434.635 259.201 433.787 259.005C433.629 258.97 433.469 258.944 433.308 258.929L433.643 201.139C434.434 201.071 435.181 200.744 435.768 200.208L475.338 234.582C475.026 234.977 474.803 235.435 474.685 235.923C474.505 236.684 474.581 237.481 474.9 238.191L435.868 260.418ZM481.655 236.261C481.589 235.724 481.4 235.211 481.104 234.759L532.168 188.859L564.757 229.304C564.29 229.769 563.962 230.354 563.809 230.992C563.751 231.234 563.718 231.481 563.711 231.73L481.655 236.261ZM569.88 234.136C570.273 233.694 570.552 233.163 570.69 232.589C570.835 232.006 570.825 231.397 570.659 230.822L591.618 222.303L609.762 273.974C609.421 274.096 609.102 274.272 608.817 274.495L569.88 234.136ZM685.579 276.081C685.395 275.997 685.203 275.933 685.005 275.888C684.547 275.78 684.071 275.767 683.606 275.848L673.664 244.516L703.498 228.475C703.819 228.865 704.22 229.181 704.675 229.402L685.579 276.081Z" fill="#79B6FF"/>
</svg>
